<svg width="92" height="30" viewBox="0 0 92 30" fill="none" xmlns="http://www.w3.org/2000/svg">
<path d="M12.7274 13.3806V16.5056H8.87513e-05V13.3806H12.7274ZM17.1218 29.4885V26.9317L26.7241 16.4203C27.851 15.1893 28.779 14.1192 29.5082 13.2101C30.2373 12.2916 30.7771 11.4298 31.1275 10.6249C31.4873 9.81049 31.6672 8.95822 31.6672 8.06807C31.6672 7.04534 31.421 6.15993 30.9286 5.41182C30.4457 4.66371 29.7828 4.08606 28.94 3.67887C28.0972 3.27167 27.1502 3.06807 26.0991 3.06807C24.9816 3.06807 24.0063 3.30008 23.1729 3.76409C22.3491 4.21864 21.7099 4.85784 21.2553 5.68171C20.8102 6.50557 20.5877 7.47148 20.5877 8.57943H17.2354C17.2354 6.87489 17.6284 5.37868 18.4144 4.0908C19.2004 2.80292 20.2705 1.79913 21.6246 1.07943C22.9883 0.359736 24.5176 -0.000112057 26.2127 -0.000112057C27.9172 -0.000112057 29.4277 0.359736 30.744 1.07943C32.0602 1.79913 33.0924 2.76977 33.8405 3.99137C34.5886 5.21296 34.9627 6.57186 34.9627 8.06807C34.9627 9.13815 34.7686 10.1845 34.3803 11.2073C34.0015 12.2205 33.3386 13.3522 32.3917 14.6022C31.4542 15.8427 30.1521 17.3578 28.4854 19.1476L21.9513 26.1363V26.3635H35.4741V29.4885H17.1218ZM50.3515 29.8863C48.6848 29.8863 47.1838 29.5548 45.8486 28.8919C44.5134 28.2291 43.4433 27.32 42.6384 26.1647C41.8335 25.0094 41.3931 23.6931 41.3174 22.2158H44.7265C44.859 23.5321 45.4556 24.6211 46.5162 25.4828C47.5863 26.3351 48.8647 26.7613 50.3515 26.7613C51.5446 26.7613 52.6052 26.4819 53.5333 25.9232C54.4708 25.3645 55.2047 24.5974 55.735 23.622C56.2747 22.6372 56.5446 21.5245 56.5446 20.284C56.5446 19.015 56.2653 17.8834 55.7066 16.8891C55.1573 15.8853 54.3997 15.0946 53.4338 14.5169C52.4679 13.9393 51.3647 13.6457 50.1242 13.6363C49.234 13.6268 48.3202 13.7641 47.3827 14.0482C46.4452 14.3228 45.6734 14.6779 45.0674 15.1135L41.7719 14.7158L43.5333 0.397615H58.6469V3.52262H46.4878L45.4651 12.1022H45.6355C46.2321 11.6287 46.9802 11.2357 47.8799 10.9232C48.7795 10.6107 49.717 10.4544 50.6924 10.4544C52.4727 10.4544 54.0588 10.8806 55.4509 11.7328C56.8524 12.5756 57.9509 13.7309 58.7463 15.1988C59.5513 16.6666 59.9537 18.3427 59.9537 20.2272C59.9537 22.0832 59.5371 23.7404 58.7037 25.1988C57.8799 26.6476 56.7435 27.7934 55.2946 28.6363C53.8458 29.4696 52.198 29.8863 50.3515 29.8863ZM80.346 24.034V22.4999C80.346 21.4393 80.5638 20.4686 80.9994 19.588C81.4445 18.6978 82.0885 17.9876 82.9313 17.4573C83.7835 16.9175 84.8157 16.6476 86.0278 16.6476C87.2589 16.6476 88.2911 16.9175 89.1244 17.4573C89.9578 17.9876 90.5875 18.6978 91.0136 19.588C91.4398 20.4686 91.6528 21.4393 91.6528 22.4999V24.034C91.6528 25.0946 91.435 26.07 90.9994 26.9601C90.5733 27.8408 89.9388 28.551 89.096 29.0908C88.2627 29.6211 87.24 29.8863 86.0278 29.8863C84.7968 29.8863 83.7599 29.6211 82.9171 29.0908C82.0742 28.551 81.435 27.8408 80.9994 26.9601C80.5638 26.07 80.346 25.0946 80.346 24.034ZM83.2438 22.4999V24.034C83.2438 24.9147 83.4521 25.7054 83.8688 26.4061C84.2854 27.0974 85.0051 27.4431 86.0278 27.4431C87.0222 27.4431 87.7229 27.0974 88.1301 26.4061C88.5468 25.7054 88.7551 24.9147 88.7551 24.034V22.4999C88.7551 21.6192 88.5563 20.8332 88.1585 20.1419C87.7608 19.4412 87.0506 19.0908 86.0278 19.0908C85.0335 19.0908 84.3186 19.4412 83.883 20.1419C83.4568 20.8332 83.2438 21.6192 83.2438 22.4999ZM65.8574 7.38625V5.85216C65.8574 4.79156 66.0752 3.82091 66.5108 2.94023C66.9559 2.05008 67.5998 1.33985 68.4426 0.809548C69.2949 0.269775 70.3271 -0.000112057 71.5392 -0.000112057C72.7703 -0.000112057 73.8025 0.269775 74.6358 0.809548C75.4691 1.33985 76.0989 2.05008 76.525 2.94023C76.9511 3.82091 77.1642 4.79156 77.1642 5.85216V7.38625C77.1642 8.44686 76.9464 9.42224 76.5108 10.3124C76.0847 11.1931 75.4502 11.9033 74.6074 12.4431C73.7741 12.9734 72.7513 13.2385 71.5392 13.2385C70.3081 13.2385 69.2712 12.9734 68.4284 12.4431C67.5856 11.9033 66.9464 11.1931 66.5108 10.3124C66.0752 9.42224 65.8574 8.44686 65.8574 7.38625ZM68.7551 5.85216V7.38625C68.7551 8.26693 68.9635 9.05765 69.3801 9.75841C69.7968 10.4497 70.5165 10.7953 71.5392 10.7953C72.5335 10.7953 73.2343 10.4497 73.6415 9.75841C74.0581 9.05765 74.2665 8.26693 74.2665 7.38625V5.85216C74.2665 4.97148 74.0676 4.18549 73.6699 3.49421C73.2722 2.79345 72.5619 2.44307 71.5392 2.44307C70.5449 2.44307 69.8299 2.79345 69.3943 3.49421C68.9682 4.18549 68.7551 4.97148 68.7551 5.85216ZM66.9369 29.4885L86.9369 0.397615H90.1756L70.1756 29.4885H66.9369Z" fill="#BA1B1B"/>
</svg>
