<svg width="37" height="17" viewBox="0 0 37 17" fill="none" xmlns="http://www.w3.org/2000/svg">
<path d="M28.5 16.9518C26.1389 16.9518 24.1319 16.1255 22.4792 14.4727C20.8264 12.8199 20 10.813 20 8.45188C20 6.18908 20.7676 4.24839 22.3029 2.62981C23.8381 1.01123 25.7179 0.134625 27.9422 0C28.0858 0 28.2268 0.00512797 28.3653 0.0153839C28.5037 0.0256399 28.6396 0.0410238 28.773 0.0615356C28.2627 0.538458 27.8563 1.11474 27.5538 1.79037C27.2512 2.466 27.0999 3.18651 27.0999 3.95188C27.0999 5.59078 27.6735 6.98385 28.8208 8.13107C29.968 9.2783 31.3611 9.85192 33 9.85192C33.7756 9.85192 34.4987 9.70064 35.1692 9.39808C35.8397 9.09553 36.4102 8.68913 36.8807 8.17888C36.9012 8.31221 36.9166 8.4481 36.9268 8.58656C36.9371 8.72501 36.9422 8.86603 36.9422 9.00962C36.814 11.234 35.9406 13.1137 34.322 14.649C32.7035 16.1842 30.7628 16.9518 28.5 16.9518ZM28.5 15.4519C29.9666 15.4519 31.2833 15.0477 32.45 14.2394C33.6166 13.431 34.4666 12.3769 35 11.0769C34.6666 11.1602 34.3333 11.2269 34 11.2769C33.6666 11.3269 33.3333 11.3519 33 11.3519C30.95 11.3519 29.2041 10.631 27.7625 9.18938C26.3208 7.74772 25.6 6.00188 25.6 3.95188C25.6 3.61855 25.625 3.28522 25.675 2.95188C25.725 2.61855 25.7916 2.28522 25.875 1.95188C24.575 2.48522 23.5208 3.33522 22.7125 4.50188C21.9041 5.66855 21.5 6.98522 21.5 8.45188C21.5 10.3852 22.1833 12.0352 23.55 13.4019C24.9166 14.7685 26.5666 15.4519 28.5 15.4519Z" fill="white"/>
</svg>
