<svg width="37" height="36" viewBox="0 0 37 36" fill="none" xmlns="http://www.w3.org/2000/svg">
<foreignObject x="-10" y="-11" width="56.6406" height="55.2734"><div xmlns="http://www.w3.org/1999/xhtml" style="backdrop-filter:blur(6px);clip-path:url(#bgblur_0_42_338_clip_path);height:100%;width:100%"></div></foreignObject><g filter="url(#filter0_d_42_338)" data-figma-bg-blur-radius="12">
<rect x="2" y="1" width="32.6406" height="31.2734" rx="15.6367" fill="white" fill-opacity="0.9" shape-rendering="crispEdges"/>
<path d="M22.0703 9C20.625 9 19.2188 9.66406 18.3203 10.7578C17.4219 9.66406 16.0156 9 14.5703 9C11.9922 9 10 11.0312 10 13.5703C10 16.7344 12.8125 19.3125 17.1094 23.2188L18.3203 24.2734L19.5312 23.1797C23.8281 19.3125 26.6406 16.7344 26.6406 13.5703C26.6406 11.0312 24.6484 9 22.0703 9ZM18.3984 21.9688L18.3203 22.0469L18.2422 21.9688C14.2578 18.375 11.6406 15.9922 11.6406 13.5703C11.6406 11.9297 12.8906 10.6797 14.5703 10.6797C15.8594 10.6797 17.1094 11.5 17.5391 12.6328H19.1016C19.5312 11.5 20.7812 10.6797 22.0703 10.6797C23.75 10.6797 25 11.9297 25 13.5703C25 15.9922 22.3828 18.375 18.3984 21.9688Z" fill="#0F172A"/>
</g>
<defs>
<filter id="filter0_d_42_338" x="-10" y="-11" width="56.6406" height="55.2734" filterUnits="userSpaceOnUse" color-interpolation-filters="sRGB">
<feFlood flood-opacity="0" result="BackgroundImageFix"/>
<feColorMatrix in="SourceAlpha" type="matrix" values="0 0 0 0 0 0 0 0 0 0 0 0 0 0 0 0 0 0 127 0" result="hardAlpha"/>
<feOffset dy="1"/>
<feGaussianBlur stdDeviation="1"/>
<feComposite in2="hardAlpha" operator="out"/>
<feColorMatrix type="matrix" values="0 0 0 0 0 0 0 0 0 0 0 0 0 0 0 0 0 0 0.05 0"/>
<feBlend mode="normal" in2="BackgroundImageFix" result="effect1_dropShadow_42_338"/>
<feBlend mode="normal" in="SourceGraphic" in2="effect1_dropShadow_42_338" result="shape"/>
</filter>
<clipPath id="bgblur_0_42_338_clip_path" transform="translate(10 11)"><rect x="2" y="1" width="32.6406" height="31.2734" rx="15.6367"/>
</clipPath></defs>
</svg>
