<svg width="823" height="213" viewBox="0 0 823 213" fill="none" xmlns="http://www.w3.org/2000/svg">
<g filter="url(#filter0_d_23_235)">
<path d="M40 98.5C40 61.7731 69.7731 32 106.5 32H716.5C753.227 32 783 61.7731 783 98.5V98.5C783 135.227 753.227 165 716.5 165H106.5C69.7731 165 40 135.227 40 98.5V98.5Z" fill="white" fill-opacity="0.65" shape-rendering="crispEdges"/>
<path d="M40 98.5C40 61.7731 69.7731 32 106.5 32H716.5C753.227 32 783 61.7731 783 98.5V98.5C783 135.227 753.227 165 716.5 165H106.5C69.7731 165 40 135.227 40 98.5V98.5Z" fill="#968F8F" style="mix-blend-mode:color-burn" shape-rendering="crispEdges"/>
<path d="M40 98.5C40 61.7731 69.7731 32 106.5 32H716.5C753.227 32 783 61.7731 783 98.5V98.5C783 135.227 753.227 165 716.5 165H106.5C69.7731 165 40 135.227 40 98.5V98.5Z" fill="#D2C2A7" style="mix-blend-mode:darken" shape-rendering="crispEdges"/>
</g>
<path d="M40 98.5C40 61.7731 69.7731 32 106.5 32H716.5C753.227 32 783 61.7731 783 98.5V98.5C783 135.227 753.227 165 716.5 165H106.5C69.7731 165 40 135.227 40 98.5V98.5Z" fill="black" fill-opacity="0.01"/>
<path d="M240.758 116L253.062 82.1797H257.328V87.7812H255.852L246.289 116H240.758ZM246.734 106.859L248.258 102.641H263.539L265.062 106.859H246.734ZM265.508 116L255.969 87.7812V82.1797H258.758L271.039 116H265.508ZM282.711 116.492C280.617 116.492 278.797 115.969 277.25 114.922C275.703 113.875 274.508 112.398 273.664 110.492C272.82 108.57 272.398 106.297 272.398 103.672V103.648C272.398 101.023 272.82 98.7578 273.664 96.8516C274.523 94.9453 275.719 93.4766 277.25 92.4453C278.797 91.3984 280.602 90.875 282.664 90.875C283.82 90.875 284.898 91.0625 285.898 91.4375C286.898 91.8125 287.781 92.3516 288.547 93.0547C289.328 93.7422 289.961 94.5703 290.445 95.5391H290.539V82.1797H295.648V116H290.539V111.828H290.445C289.961 112.797 289.336 113.625 288.57 114.312C287.82 115 286.953 115.539 285.969 115.93C284.984 116.305 283.898 116.492 282.711 116.492ZM284.047 112.109C285.328 112.109 286.453 111.766 287.422 111.078C288.406 110.375 289.172 109.391 289.719 108.125C290.281 106.859 290.562 105.375 290.562 103.672V103.648C290.562 101.945 290.281 100.469 289.719 99.2188C289.156 97.9531 288.391 96.9766 287.422 96.2891C286.453 95.5859 285.328 95.2344 284.047 95.2344C282.719 95.2344 281.57 95.5781 280.602 96.2656C279.633 96.9375 278.883 97.9062 278.352 99.1719C277.836 100.422 277.578 101.914 277.578 103.648V103.672C277.578 105.406 277.836 106.914 278.352 108.195C278.883 109.461 279.633 110.43 280.602 111.102C281.57 111.773 282.719 112.109 284.047 112.109ZM310.039 116.492C307.945 116.492 306.125 115.969 304.578 114.922C303.031 113.875 301.836 112.398 300.992 110.492C300.148 108.57 299.727 106.297 299.727 103.672V103.648C299.727 101.023 300.148 98.7578 300.992 96.8516C301.852 94.9453 303.047 93.4766 304.578 92.4453C306.125 91.3984 307.93 90.875 309.992 90.875C311.148 90.875 312.227 91.0625 313.227 91.4375C314.227 91.8125 315.109 92.3516 315.875 93.0547C316.656 93.7422 317.289 94.5703 317.773 95.5391H317.867V82.1797H322.977V116H317.867V111.828H317.773C317.289 112.797 316.664 113.625 315.898 114.312C315.148 115 314.281 115.539 313.297 115.93C312.312 116.305 311.227 116.492 310.039 116.492ZM311.375 112.109C312.656 112.109 313.781 111.766 314.75 111.078C315.734 110.375 316.5 109.391 317.047 108.125C317.609 106.859 317.891 105.375 317.891 103.672V103.648C317.891 101.945 317.609 100.469 317.047 99.2188C316.484 97.9531 315.719 96.9766 314.75 96.2891C313.781 95.5859 312.656 95.2344 311.375 95.2344C310.047 95.2344 308.898 95.5781 307.93 96.2656C306.961 96.9375 306.211 97.9062 305.68 99.1719C305.164 100.422 304.906 101.914 304.906 103.648V103.672C304.906 105.406 305.164 106.914 305.68 108.195C306.211 109.461 306.961 110.43 307.93 111.102C308.898 111.773 310.047 112.109 311.375 112.109ZM337.836 124.203V91.3438H342.945V95.5625H343.062C343.547 94.5938 344.164 93.7578 344.914 93.0547C345.68 92.3516 346.555 91.8125 347.539 91.4375C348.523 91.0625 349.602 90.875 350.773 90.875C352.867 90.875 354.688 91.3984 356.234 92.4453C357.781 93.4766 358.977 94.9531 359.82 96.875C360.664 98.7812 361.086 101.047 361.086 103.672V103.695C361.086 106.32 360.656 108.586 359.797 110.492C358.953 112.398 357.766 113.875 356.234 114.922C354.703 115.969 352.906 116.492 350.844 116.492C349.688 116.492 348.602 116.305 347.586 115.93C346.586 115.555 345.703 115.023 344.938 114.336C344.172 113.633 343.539 112.805 343.039 111.852H342.945V124.203H337.836ZM349.438 112.109C350.766 112.109 351.914 111.773 352.883 111.102C353.852 110.414 354.594 109.438 355.109 108.172C355.625 106.906 355.883 105.414 355.883 103.695V103.672C355.883 101.922 355.625 100.414 355.109 99.1484C354.594 97.8828 353.852 96.9141 352.883 96.2422C351.914 95.5703 350.766 95.2344 349.438 95.2344C348.156 95.2344 347.023 95.5859 346.039 96.2891C345.055 96.9766 344.281 97.9531 343.719 99.2188C343.172 100.469 342.898 101.953 342.898 103.672V103.695C342.898 105.398 343.18 106.883 343.742 108.148C344.305 109.398 345.07 110.375 346.039 111.078C347.023 111.766 348.156 112.109 349.438 112.109ZM364.977 116V91.3438H370.086V95.5625H370.18C370.57 94.1094 371.266 92.9688 372.266 92.1406C373.266 91.2969 374.469 90.875 375.875 90.875C376.25 90.875 376.586 90.8984 376.883 90.9453C377.195 90.9766 377.445 91.0156 377.633 91.0625V95.7734C377.43 95.6953 377.125 95.6328 376.719 95.5859C376.312 95.5234 375.859 95.4922 375.359 95.4922C374.281 95.4922 373.344 95.7266 372.547 96.1953C371.75 96.6484 371.141 97.3125 370.719 98.1875C370.297 99.0469 370.086 100.086 370.086 101.305V116H364.977ZM390.383 116.492C388.023 116.492 385.961 115.977 384.195 114.945C382.445 113.898 381.086 112.422 380.117 110.516C379.148 108.594 378.664 106.312 378.664 103.672V103.625C378.664 101 379.148 98.7344 380.117 96.8281C381.102 94.9219 382.469 93.4531 384.219 92.4219C385.984 91.3906 388.031 90.875 390.359 90.875C392.703 90.875 394.75 91.3906 396.5 92.4219C398.266 93.4375 399.633 94.8984 400.602 96.8047C401.586 98.7109 402.078 100.984 402.078 103.625V103.672C402.078 106.328 401.586 108.609 400.602 110.516C399.633 112.422 398.273 113.898 396.523 114.945C394.773 115.977 392.727 116.492 390.383 116.492ZM390.406 112.227C391.719 112.227 392.859 111.891 393.828 111.219C394.797 110.547 395.547 109.578 396.078 108.312C396.609 107.031 396.875 105.484 396.875 103.672V103.625C396.875 101.828 396.609 100.297 396.078 99.0312C395.547 97.75 394.789 96.7812 393.805 96.125C392.82 95.4531 391.672 95.1172 390.359 95.1172C389.062 95.1172 387.922 95.4531 386.938 96.125C385.969 96.7969 385.211 97.7656 384.664 99.0312C384.117 100.297 383.844 101.828 383.844 103.625V103.672C383.844 105.484 384.109 107.031 384.641 108.312C385.188 109.578 385.953 110.547 386.938 111.219C387.922 111.891 389.078 112.227 390.406 112.227ZM405.992 116V91.3438H411.102V95.1641H411.195C411.727 93.8672 412.594 92.8281 413.797 92.0469C415 91.2656 416.406 90.875 418.016 90.875C419.141 90.875 420.156 91.0625 421.062 91.4375C421.984 91.8125 422.773 92.3672 423.43 93.1016C424.086 93.8203 424.57 94.6953 424.883 95.7266H425C425.422 94.7266 426.008 93.8672 426.758 93.1484C427.523 92.4141 428.406 91.8516 429.406 91.4609C430.422 91.0703 431.516 90.875 432.688 90.875C434.312 90.875 435.727 91.2188 436.93 91.9062C438.133 92.5781 439.07 93.5234 439.742 94.7422C440.414 95.9609 440.75 97.3906 440.75 99.0312V116H435.641V100.273C435.641 99.1953 435.453 98.2812 435.078 97.5312C434.719 96.7812 434.188 96.2109 433.484 95.8203C432.797 95.4297 431.945 95.2344 430.93 95.2344C429.93 95.2344 429.047 95.4609 428.281 95.9141C427.531 96.3672 426.938 97 426.5 97.8125C426.078 98.625 425.867 99.5469 425.867 100.578V116H420.875V99.8984C420.875 98.9453 420.68 98.125 420.289 97.4375C419.914 96.7344 419.383 96.1953 418.695 95.8203C418.008 95.4297 417.18 95.2344 416.211 95.2344C415.227 95.2344 414.344 95.4766 413.562 95.9609C412.797 96.4297 412.195 97.0781 411.758 97.9062C411.32 98.7344 411.102 99.6875 411.102 100.766V116H405.992ZM456.242 116.492C453.883 116.492 451.82 115.977 450.055 114.945C448.305 113.898 446.945 112.422 445.977 110.516C445.008 108.594 444.523 106.312 444.523 103.672V103.625C444.523 101 445.008 98.7344 445.977 96.8281C446.961 94.9219 448.328 93.4531 450.078 92.4219C451.844 91.3906 453.891 90.875 456.219 90.875C458.562 90.875 460.609 91.3906 462.359 92.4219C464.125 93.4375 465.492 94.8984 466.461 96.8047C467.445 98.7109 467.938 100.984 467.938 103.625V103.672C467.938 106.328 467.445 108.609 466.461 110.516C465.492 112.422 464.133 113.898 462.383 114.945C460.633 115.977 458.586 116.492 456.242 116.492ZM456.266 112.227C457.578 112.227 458.719 111.891 459.688 111.219C460.656 110.547 461.406 109.578 461.938 108.312C462.469 107.031 462.734 105.484 462.734 103.672V103.625C462.734 101.828 462.469 100.297 461.938 99.0312C461.406 97.75 460.648 96.7812 459.664 96.125C458.68 95.4531 457.531 95.1172 456.219 95.1172C454.922 95.1172 453.781 95.4531 452.797 96.125C451.828 96.7969 451.07 97.7656 450.523 99.0312C449.977 100.297 449.703 101.828 449.703 103.625V103.672C449.703 105.484 449.969 107.031 450.5 108.312C451.047 109.578 451.812 110.547 452.797 111.219C453.781 111.891 454.938 112.227 456.266 112.227ZM492.172 116.492C489.781 116.492 487.703 115.969 485.938 114.922C484.188 113.875 482.836 112.391 481.883 110.469C480.945 108.547 480.477 106.273 480.477 103.648V103.625C480.477 101.016 480.953 98.7578 481.906 96.8516C482.875 94.9453 484.234 93.4766 485.984 92.4453C487.734 91.3984 489.781 90.875 492.125 90.875C494.234 90.875 496.055 91.2812 497.586 92.0938C499.133 92.8906 500.344 93.9531 501.219 95.2812C502.094 96.6094 502.602 98.0469 502.742 99.5938L502.766 99.7812H497.914L497.867 99.5703C497.602 98.3672 496.992 97.3281 496.039 96.4531C495.102 95.5625 493.805 95.1172 492.148 95.1172C490.852 95.1172 489.711 95.4688 488.727 96.1719C487.758 96.8594 487 97.8438 486.453 99.125C485.922 100.406 485.656 101.922 485.656 103.672V103.695C485.656 105.492 485.93 107.031 486.477 108.312C487.023 109.578 487.781 110.547 488.75 111.219C489.734 111.891 490.883 112.227 492.195 112.227C493.758 112.227 495.016 111.82 495.969 111.008C496.938 110.18 497.578 109.102 497.891 107.773L497.914 107.586H502.789V107.75C502.602 109.391 502.039 110.875 501.102 112.203C500.18 113.516 498.953 114.562 497.422 115.344C495.906 116.109 494.156 116.492 492.172 116.492ZM517.039 116.492C514.68 116.492 512.617 115.977 510.852 114.945C509.102 113.898 507.742 112.422 506.773 110.516C505.805 108.594 505.32 106.312 505.32 103.672V103.625C505.32 101 505.805 98.7344 506.773 96.8281C507.758 94.9219 509.125 93.4531 510.875 92.4219C512.641 91.3906 514.688 90.875 517.016 90.875C519.359 90.875 521.406 91.3906 523.156 92.4219C524.922 93.4375 526.289 94.8984 527.258 96.8047C528.242 98.7109 528.734 100.984 528.734 103.625V103.672C528.734 106.328 528.242 108.609 527.258 110.516C526.289 112.422 524.93 113.898 523.18 114.945C521.43 115.977 519.383 116.492 517.039 116.492ZM517.062 112.227C518.375 112.227 519.516 111.891 520.484 111.219C521.453 110.547 522.203 109.578 522.734 108.312C523.266 107.031 523.531 105.484 523.531 103.672V103.625C523.531 101.828 523.266 100.297 522.734 99.0312C522.203 97.75 521.445 96.7812 520.461 96.125C519.477 95.4531 518.328 95.1172 517.016 95.1172C515.719 95.1172 514.578 95.4531 513.594 96.125C512.625 96.7969 511.867 97.7656 511.32 99.0312C510.773 100.297 510.5 101.828 510.5 103.625V103.672C510.5 105.484 510.766 107.031 511.297 108.312C511.844 109.578 512.609 110.547 513.594 111.219C514.578 111.891 515.734 112.227 517.062 112.227ZM541.883 116.492C539.789 116.492 537.969 115.969 536.422 114.922C534.875 113.875 533.68 112.398 532.836 110.492C531.992 108.57 531.57 106.297 531.57 103.672V103.648C531.57 101.023 531.992 98.7578 532.836 96.8516C533.695 94.9453 534.891 93.4766 536.422 92.4453C537.969 91.3984 539.773 90.875 541.836 90.875C542.992 90.875 544.07 91.0625 545.07 91.4375C546.07 91.8125 546.953 92.3516 547.719 93.0547C548.5 93.7422 549.133 94.5703 549.617 95.5391H549.711V82.1797H554.82V116H549.711V111.828H549.617C549.133 112.797 548.508 113.625 547.742 114.312C546.992 115 546.125 115.539 545.141 115.93C544.156 116.305 543.07 116.492 541.883 116.492ZM543.219 112.109C544.5 112.109 545.625 111.766 546.594 111.078C547.578 110.375 548.344 109.391 548.891 108.125C549.453 106.859 549.734 105.375 549.734 103.672V103.648C549.734 101.945 549.453 100.469 548.891 99.2188C548.328 97.9531 547.562 96.9766 546.594 96.2891C545.625 95.5859 544.5 95.2344 543.219 95.2344C541.891 95.2344 540.742 95.5781 539.773 96.2656C538.805 96.9375 538.055 97.9062 537.523 99.1719C537.008 100.422 536.75 101.914 536.75 103.648V103.672C536.75 105.406 537.008 106.914 537.523 108.195C538.055 109.461 538.805 110.43 539.773 111.102C540.742 111.773 541.891 112.109 543.219 112.109ZM570.523 116.492C568.117 116.492 566.039 115.977 564.289 114.945C562.555 113.898 561.219 112.422 560.281 110.516C559.359 108.594 558.898 106.336 558.898 103.742V103.719C558.898 101.156 559.367 98.9141 560.305 96.9922C561.242 95.0547 562.562 93.5547 564.266 92.4922C565.969 91.4141 567.969 90.875 570.266 90.875C572.578 90.875 574.562 91.3906 576.219 92.4219C577.891 93.4375 579.18 94.8828 580.086 96.7578C580.992 98.6172 581.445 100.781 581.445 103.25V104.961H561.406V101.375H578.984L576.477 104.727V102.758C576.477 101.023 576.211 99.5859 575.68 98.4453C575.164 97.2891 574.438 96.4297 573.5 95.8672C572.578 95.3047 571.508 95.0234 570.289 95.0234C569.086 95.0234 568.008 95.3203 567.055 95.9141C566.102 96.5078 565.352 97.3828 564.805 98.5391C564.258 99.6797 563.984 101.086 563.984 102.758V104.727C563.984 106.32 564.25 107.688 564.781 108.828C565.328 109.953 566.102 110.82 567.102 111.43C568.102 112.023 569.281 112.32 570.641 112.32C571.641 112.32 572.523 112.172 573.289 111.875C574.055 111.562 574.688 111.156 575.188 110.656C575.703 110.141 576.062 109.57 576.266 108.945L576.336 108.758H581.164L581.117 109.016C580.914 109.984 580.531 110.914 579.969 111.805C579.406 112.695 578.672 113.5 577.766 114.219C576.875 114.922 575.82 115.477 574.602 115.883C573.383 116.289 572.023 116.492 570.523 116.492Z" fill="#1A1A1A" style="mix-blend-mode:plus-darker"/>
<defs>
<filter id="filter0_d_23_235" x="0" y="0" width="823" height="213" filterUnits="userSpaceOnUse" color-interpolation-filters="sRGB">
<feFlood flood-opacity="0" result="BackgroundImageFix"/>
<feColorMatrix in="SourceAlpha" type="matrix" values="0 0 0 0 0 0 0 0 0 0 0 0 0 0 0 0 0 0 127 0" result="hardAlpha"/>
<feOffset dy="8"/>
<feGaussianBlur stdDeviation="20"/>
<feComposite in2="hardAlpha" operator="out"/>
<feColorMatrix type="matrix" values="0 0 0 0 0 0 0 0 0 0 0 0 0 0 0 0 0 0 0.12 0"/>
<feBlend mode="normal" in2="BackgroundImageFix" result="effect1_dropShadow_23_235"/>
<feBlend mode="normal" in="SourceGraphic" in2="effect1_dropShadow_23_235" result="shape"/>
</filter>
</defs>
</svg>
