<svg width="342" height="133" viewBox="0 0 342 133" fill="none" xmlns="http://www.w3.org/2000/svg">
<mask id="path-1-inside-1_24_245" fill="white">
<path d="M0 66.5C0 29.7731 29.7731 0 66.5 0H275.5C312.227 0 342 29.7731 342 66.5C342 103.227 312.227 133 275.5 133H66.5C29.7731 133 0 103.227 0 66.5Z"/>
</mask>
<path d="M0 66.5C0 29.7731 29.7731 0 66.5 0H275.5C312.227 0 342 29.7731 342 66.5C342 103.227 312.227 133 275.5 133H66.5C29.7731 133 0 103.227 0 66.5Z" fill="#2C2C2C"/>
<path d="M0 66.5M342 66.5M342 66.5M0 66.5M66.5 0V1H275.5V0V-1H66.5V0ZM342 66.5M275.5 133V132H66.5V133V134H275.5V133ZM0 66.5M66.5 133V132C30.3253 132 1 102.675 1 66.5H0H-1C-1 103.779 29.2208 134 66.5 134V133ZM342 66.5H341C341 102.675 311.675 132 275.5 132V133V134C312.779 134 343 103.779 343 66.5H342ZM275.5 0V1C311.675 1 341 30.3253 341 66.5H342H343C343 29.2208 312.779 -1 275.5 -1V0ZM66.5 0V-1C29.2208 -1 -1 29.2208 -1 66.5H0H1C1 30.3253 30.3254 1 66.5 1V0Z" fill="#2C2C2C" mask="url(#path-1-inside-1_24_245)"/>
<path d="M111.659 83.5H107.227L120.045 48.5909H124.409L137.227 83.5H132.795L122.364 54.1136H122.091L111.659 83.5ZM113.295 69.8636H131.159V73.6136H113.295V69.8636ZM142.119 93.3182V57.3182H146.006V61.4773H146.483C146.778 61.0227 147.188 60.4432 147.71 59.7386C148.244 59.0227 149.006 58.3864 149.994 57.8295C150.994 57.2614 152.347 56.9773 154.051 56.9773C156.256 56.9773 158.199 57.5284 159.881 58.6307C161.563 59.733 162.875 61.2955 163.818 63.3182C164.761 65.3409 165.233 67.7273 165.233 70.4773C165.233 73.25 164.761 75.6534 163.818 77.6875C162.875 79.7102 161.568 81.2784 159.898 82.392C158.227 83.4943 156.301 84.0455 154.119 84.0455C152.438 84.0455 151.091 83.767 150.08 83.2102C149.068 82.642 148.29 82 147.744 81.2841C147.199 80.5568 146.778 79.9545 146.483 79.4773H146.142V93.3182H142.119ZM146.074 70.4091C146.074 72.3864 146.364 74.1307 146.943 75.642C147.523 77.142 148.369 78.3182 149.483 79.1705C150.597 80.0114 151.96 80.4318 153.574 80.4318C155.256 80.4318 156.659 79.9886 157.784 79.1023C158.92 78.2045 159.773 77 160.341 75.4886C160.92 73.9659 161.21 72.2727 161.21 70.4091C161.21 68.5682 160.926 66.9091 160.358 65.4318C159.801 63.9432 158.955 62.767 157.818 61.9034C156.693 61.0284 155.278 60.5909 153.574 60.5909C151.938 60.5909 150.563 61.0057 149.449 61.8352C148.335 62.6534 147.494 63.8011 146.926 65.2784C146.358 66.7443 146.074 68.4545 146.074 70.4091ZM171.369 93.3182V57.3182H175.256V61.4773H175.733C176.028 61.0227 176.438 60.4432 176.96 59.7386C177.494 59.0227 178.256 58.3864 179.244 57.8295C180.244 57.2614 181.597 56.9773 183.301 56.9773C185.506 56.9773 187.449 57.5284 189.131 58.6307C190.813 59.733 192.125 61.2955 193.068 63.3182C194.011 65.3409 194.483 67.7273 194.483 70.4773C194.483 73.25 194.011 75.6534 193.068 77.6875C192.125 79.7102 190.818 81.2784 189.148 82.392C187.477 83.4943 185.551 84.0455 183.369 84.0455C181.688 84.0455 180.341 83.767 179.33 83.2102C178.318 82.642 177.54 82 176.994 81.2841C176.449 80.5568 176.028 79.9545 175.733 79.4773H175.392V93.3182H171.369ZM175.324 70.4091C175.324 72.3864 175.614 74.1307 176.193 75.642C176.773 77.142 177.619 78.3182 178.733 79.1705C179.847 80.0114 181.21 80.4318 182.824 80.4318C184.506 80.4318 185.909 79.9886 187.034 79.1023C188.17 78.2045 189.023 77 189.591 75.4886C190.17 73.9659 190.46 72.2727 190.46 70.4091C190.46 68.5682 190.176 66.9091 189.608 65.4318C189.051 63.9432 188.205 62.767 187.068 61.9034C185.943 61.0284 184.528 60.5909 182.824 60.5909C181.188 60.5909 179.813 61.0057 178.699 61.8352C177.585 62.6534 176.744 63.8011 176.176 65.2784C175.608 66.7443 175.324 68.4545 175.324 70.4091ZM204.642 48.5909V83.5H200.619V48.5909H204.642ZM214.601 93.3182C213.919 93.3182 213.311 93.2614 212.777 93.1477C212.243 93.0455 211.874 92.9432 211.669 92.8409L212.692 89.2955C213.669 89.5455 214.533 89.6364 215.283 89.5682C216.033 89.5 216.697 89.1648 217.277 88.5625C217.868 87.9716 218.408 87.0114 218.896 85.6818L219.646 83.6364L209.964 57.3182H214.328L221.555 78.1818H221.828L229.055 57.3182H233.419L222.305 87.3182C221.805 88.6705 221.186 89.7898 220.447 90.6761C219.709 91.5739 218.851 92.2386 217.874 92.6705C216.908 93.1023 215.817 93.3182 214.601 93.3182Z" fill="#F5F5F5"/>
</svg>
