<svg width="488" height="133" viewBox="0 0 488 133" fill="none" xmlns="http://www.w3.org/2000/svg">
<mask id="path-1-inside-1_28_219" fill="white">
<path d="M0 66.5C0 29.7731 29.7731 0 66.5 0H421.5C458.227 0 488 29.7731 488 66.5C488 103.227 458.227 133 421.5 133H66.5C29.7731 133 0 103.227 0 66.5Z"/>
</mask>
<path d="M0 66.5C0 29.7731 29.7731 0 66.5 0H421.5C458.227 0 488 29.7731 488 66.5C488 103.227 458.227 133 421.5 133H66.5C29.7731 133 0 103.227 0 66.5Z" fill="#2C2C2C"/>
<path d="M0 66.5M488 66.5M488 66.5M0 66.5M66.5 0V1H421.5V0V-1H66.5V0ZM488 66.5M421.5 133V132H66.5V133V134H421.5V133ZM0 66.5M66.5 133V132C30.3253 132 1 102.675 1 66.5H0H-1C-1 103.779 29.2208 134 66.5 134V133ZM488 66.5H487C487 102.675 457.675 132 421.5 132V133V134C458.779 134 489 103.779 489 66.5H488ZM421.5 0V1C457.675 1 487 30.3253 487 66.5H488H489C489 29.2208 458.779 -1 421.5 -1V0ZM66.5 0V-1C29.2208 -1 -1 29.2208 -1 66.5H0H1C1 30.3253 30.3253 1 66.5 1V0Z" fill="#2C2C2C" mask="url(#path-1-inside-1_28_219)"/>
<path d="M87.0682 83.5L77.5227 48.5909H81.8182L89.1136 77.0227H89.4545L96.8864 48.5909H101.659L109.091 77.0227H109.432L116.727 48.5909H121.023L111.477 83.5H107.114L99.4091 55.6818H99.1364L91.4318 83.5H87.0682ZM124.104 83.5V57.3182H127.99V61.2727H128.263C128.74 59.9773 129.604 58.9261 130.854 58.1193C132.104 57.3125 133.513 56.9091 135.081 56.9091C135.376 56.9091 135.746 56.9148 136.189 56.9261C136.632 56.9375 136.967 56.9545 137.195 56.9773V61.0682C137.058 61.0341 136.746 60.983 136.257 60.9148C135.78 60.8352 135.274 60.7955 134.74 60.7955C133.467 60.7955 132.331 61.0625 131.331 61.5966C130.342 62.1193 129.558 62.8466 128.979 63.7784C128.411 64.6989 128.126 65.75 128.126 66.9318V83.5H124.104ZM141.963 83.5V57.3182H145.986V83.5H141.963ZM144.009 52.9545C143.224 52.9545 142.548 52.6875 141.98 52.1534C141.423 51.6193 141.145 50.9773 141.145 50.2273C141.145 49.4773 141.423 48.8352 141.98 48.3011C142.548 47.767 143.224 47.5 144.009 47.5C144.793 47.5 145.463 47.767 146.02 48.3011C146.588 48.8352 146.872 49.4773 146.872 50.2273C146.872 50.9773 146.588 51.6193 146.02 52.1534C145.463 52.6875 144.793 52.9545 144.009 52.9545ZM164.74 57.3182V60.7273H151.172V57.3182H164.74ZM155.126 51.0455H159.149V76C159.149 77.1364 159.314 77.9886 159.643 78.5568C159.984 79.1136 160.416 79.4886 160.939 79.6818C161.473 79.8636 162.036 79.9545 162.626 79.9545C163.07 79.9545 163.433 79.9318 163.717 79.8864C164.001 79.8295 164.229 79.7841 164.399 79.75L165.217 83.3636C164.945 83.4659 164.564 83.5682 164.075 83.6705C163.587 83.7841 162.967 83.8409 162.217 83.8409C161.081 83.8409 159.967 83.5966 158.876 83.108C157.797 82.6193 156.899 81.875 156.183 80.875C155.479 79.875 155.126 78.6136 155.126 77.0909V51.0455ZM181.487 84.0455C178.964 84.0455 176.788 83.4886 174.959 82.375C173.141 81.25 171.737 79.6818 170.749 77.6705C169.771 75.6477 169.283 73.2955 169.283 70.6136C169.283 67.9318 169.771 65.5682 170.749 63.5227C171.737 61.4659 173.112 59.8636 174.874 58.7159C176.646 57.5568 178.714 56.9773 181.078 56.9773C182.442 56.9773 183.788 57.2045 185.118 57.6591C186.447 58.1136 187.658 58.8523 188.749 59.875C189.839 60.8864 190.709 62.2273 191.357 63.8977C192.004 65.5682 192.328 67.625 192.328 70.0682V71.7727H172.146V68.2955H188.237C188.237 66.8182 187.942 65.5 187.351 64.3409C186.771 63.1818 185.942 62.267 184.862 61.5966C183.794 60.9261 182.533 60.5909 181.078 60.5909C179.476 60.5909 178.089 60.9886 176.919 61.7841C175.76 62.5682 174.868 63.5909 174.243 64.8523C173.618 66.1136 173.305 67.4659 173.305 68.9091V71.2273C173.305 73.2045 173.646 74.8807 174.328 76.2557C175.021 77.6193 175.982 78.6591 177.209 79.375C178.436 80.0795 179.862 80.4318 181.487 80.4318C182.544 80.4318 183.499 80.2841 184.351 79.9886C185.214 79.6818 185.959 79.2273 186.584 78.625C187.209 78.0114 187.692 77.25 188.033 76.3409L191.919 77.4318C191.51 78.75 190.822 79.9091 189.857 80.9091C188.891 81.8977 187.697 82.6705 186.277 83.2273C184.857 83.7727 183.26 84.0455 181.487 84.0455ZM219.652 84.1136C217.993 84.1136 216.487 83.8011 215.135 83.1761C213.783 82.5398 212.709 81.625 211.913 80.4318C211.118 79.2273 210.72 77.7727 210.72 76.0682C210.72 74.5682 211.016 73.3523 211.607 72.4205C212.197 71.4773 212.987 70.7386 213.976 70.2045C214.964 69.6705 216.055 69.2727 217.249 69.0114C218.453 68.7386 219.663 68.5227 220.879 68.3636C222.47 68.1591 223.76 68.0057 224.749 67.9034C225.749 67.7898 226.476 67.6023 226.93 67.3409C227.396 67.0795 227.629 66.625 227.629 65.9773V65.8409C227.629 64.1591 227.169 62.8523 226.249 61.9205C225.339 60.9886 223.959 60.5227 222.107 60.5227C220.186 60.5227 218.68 60.9432 217.589 61.7841C216.499 62.625 215.732 63.5227 215.288 64.4773L211.47 63.1136C212.152 61.5227 213.061 60.2841 214.197 59.3977C215.345 58.5 216.595 57.875 217.947 57.5227C219.311 57.1591 220.652 56.9773 221.97 56.9773C222.811 56.9773 223.777 57.0795 224.868 57.2841C225.97 57.4773 227.033 57.8807 228.055 58.4943C229.089 59.108 229.947 60.0341 230.629 61.2727C231.311 62.5114 231.652 64.1705 231.652 66.25V83.5H227.629V79.9545H227.425C227.152 80.5227 226.697 81.1307 226.061 81.7784C225.425 82.4261 224.578 82.9773 223.521 83.4318C222.464 83.8864 221.175 84.1136 219.652 84.1136ZM220.266 80.5C221.857 80.5 223.197 80.1875 224.288 79.5625C225.391 78.9375 226.22 78.1307 226.777 77.142C227.345 76.1534 227.629 75.1136 227.629 74.0227V70.3409C227.459 70.5455 227.084 70.733 226.504 70.9034C225.936 71.0625 225.277 71.2045 224.527 71.3295C223.788 71.4432 223.067 71.5455 222.362 71.6364C221.669 71.7159 221.107 71.7841 220.675 71.8409C219.629 71.9773 218.652 72.1989 217.743 72.5057C216.845 72.8011 216.118 73.25 215.561 73.8523C215.016 74.4432 214.743 75.25 214.743 76.2727C214.743 77.6705 215.26 78.7273 216.294 79.4432C217.339 80.1477 218.663 80.5 220.266 80.5ZM253.04 83.5V48.5909H264.835C267.563 48.5909 269.801 49.0568 271.551 49.9886C273.301 50.9091 274.597 52.1761 275.438 53.7898C276.278 55.4034 276.699 57.2386 276.699 59.2955C276.699 61.3523 276.278 63.1761 275.438 64.767C274.597 66.358 273.307 67.608 271.568 68.517C269.83 69.4148 267.608 69.8636 264.903 69.8636H255.358V66.0455H264.767C266.631 66.0455 268.131 65.7727 269.267 65.2273C270.415 64.6818 271.244 63.9091 271.756 62.9091C272.278 61.8977 272.54 60.6932 272.54 59.2955C272.54 57.8977 272.278 56.6761 271.756 55.6307C271.233 54.5852 270.398 53.7784 269.25 53.2102C268.102 52.6307 266.585 52.3409 264.699 52.3409H257.267V83.5H253.04ZM269.472 67.8182L278.062 83.5H273.153L264.699 67.8182H269.472ZM293.893 84.0455C291.371 84.0455 289.195 83.4886 287.365 82.375C285.547 81.25 284.143 79.6818 283.155 77.6705C282.178 75.6477 281.689 73.2955 281.689 70.6136C281.689 67.9318 282.178 65.5682 283.155 63.5227C284.143 61.4659 285.518 59.8636 287.28 58.7159C289.053 57.5568 291.121 56.9773 293.484 56.9773C294.848 56.9773 296.195 57.2045 297.524 57.6591C298.854 58.1136 300.064 58.8523 301.155 59.875C302.246 60.8864 303.115 62.2273 303.763 63.8977C304.411 65.5682 304.734 67.625 304.734 70.0682V71.7727H284.553V68.2955H300.643C300.643 66.8182 300.348 65.5 299.757 64.3409C299.178 63.1818 298.348 62.267 297.268 61.5966C296.2 60.9261 294.939 60.5909 293.484 60.5909C291.882 60.5909 290.496 60.9886 289.325 61.7841C288.166 62.5682 287.274 63.5909 286.649 64.8523C286.024 66.1136 285.712 67.4659 285.712 68.9091V71.2273C285.712 73.2045 286.053 74.8807 286.734 76.2557C287.428 77.6193 288.388 78.6591 289.615 79.375C290.842 80.0795 292.268 80.4318 293.893 80.4318C294.95 80.4318 295.905 80.2841 296.757 79.9886C297.621 79.6818 298.365 79.2273 298.99 78.625C299.615 78.0114 300.098 77.25 300.439 76.3409L304.325 77.4318C303.916 78.75 303.229 79.9091 302.263 80.9091C301.297 81.8977 300.104 82.6705 298.683 83.2273C297.263 83.7727 295.666 84.0455 293.893 84.0455ZM331.466 57.3182L321.784 83.5H317.693L308.011 57.3182H312.375L319.602 78.1818H319.875L327.102 57.3182H331.466ZM336.776 83.5V57.3182H340.798V83.5H336.776ZM338.821 52.9545C338.037 52.9545 337.361 52.6875 336.793 52.1534C336.236 51.6193 335.957 50.9773 335.957 50.2273C335.957 49.4773 336.236 48.8352 336.793 48.3011C337.361 47.767 338.037 47.5 338.821 47.5C339.605 47.5 340.276 47.767 340.832 48.3011C341.401 48.8352 341.685 49.4773 341.685 50.2273C341.685 50.9773 341.401 51.6193 340.832 52.1534C340.276 52.6875 339.605 52.9545 338.821 52.9545ZM359.143 84.0455C356.621 84.0455 354.445 83.4886 352.615 82.375C350.797 81.25 349.393 79.6818 348.405 77.6705C347.428 75.6477 346.939 73.2955 346.939 70.6136C346.939 67.9318 347.428 65.5682 348.405 63.5227C349.393 61.4659 350.768 59.8636 352.53 58.7159C354.303 57.5568 356.371 56.9773 358.734 56.9773C360.098 56.9773 361.445 57.2045 362.774 57.6591C364.104 58.1136 365.314 58.8523 366.405 59.875C367.496 60.8864 368.365 62.2273 369.013 63.8977C369.661 65.5682 369.984 67.625 369.984 70.0682V71.7727H349.803V68.2955H365.893C365.893 66.8182 365.598 65.5 365.007 64.3409C364.428 63.1818 363.598 62.267 362.518 61.5966C361.45 60.9261 360.189 60.5909 358.734 60.5909C357.132 60.5909 355.746 60.9886 354.575 61.7841C353.416 62.5682 352.524 63.5909 351.899 64.8523C351.274 66.1136 350.962 67.4659 350.962 68.9091V71.2273C350.962 73.2045 351.303 74.8807 351.984 76.2557C352.678 77.6193 353.638 78.6591 354.865 79.375C356.092 80.0795 357.518 80.4318 359.143 80.4318C360.2 80.4318 361.155 80.2841 362.007 79.9886C362.871 79.6818 363.615 79.2273 364.24 78.625C364.865 78.0114 365.348 77.25 365.689 76.3409L369.575 77.4318C369.166 78.75 368.479 79.9091 367.513 80.9091C366.547 81.8977 365.354 82.6705 363.933 83.2273C362.513 83.7727 360.916 84.0455 359.143 84.0455ZM382.036 83.5L374.058 57.3182H378.286L383.945 77.3636H384.217L389.808 57.3182H394.104L399.626 77.2955H399.899L405.558 57.3182H409.786L401.808 83.5H397.854L392.126 63.3864H391.717L385.99 83.5H382.036Z" fill="#F5F5F5"/>
</svg>
