<svg width="24" height="27" viewBox="0 0 24 27" fill="none" xmlns="http://www.w3.org/2000/svg">
<path d="M1.80768 26.9999C1.30255 26.9999 0.874992 26.8249 0.524995 26.4749C0.174998 26.1249 0 25.6974 0 25.1922V13.8077C0 13.3026 0.174998 12.875 0.524995 12.525C0.874992 12.175 1.30255 12 1.80768 12H3.74998V11.75C3.74998 10.7141 4.11601 9.83012 4.84805 9.09807C5.5801 8.36602 6.46407 8 7.49996 8C8.53586 8 9.41983 8.36602 10.1519 9.09807C10.8839 9.83012 11.2499 10.7141 11.2499 11.75V12H13.1922C13.6974 12 14.1249 12.175 14.4749 12.525C14.8249 12.875 14.9999 13.3026 14.9999 13.8077V25.1922C14.9999 25.6974 14.8249 26.1249 14.4749 26.4749C14.1249 26.8249 13.6974 26.9999 13.1922 26.9999H1.80768ZM1.80768 25.5H13.1922C13.2692 25.5 13.3397 25.4679 13.4038 25.4038C13.4679 25.3397 13.5 25.2692 13.5 25.1922V13.8077C13.5 13.7307 13.4679 13.6602 13.4038 13.5961C13.3397 13.532 13.2692 13.5 13.1922 13.5H11.2499V15.75C11.2499 15.9628 11.1782 16.141 11.0346 16.2846C10.891 16.4282 10.7128 16.5 10.5 16.5C10.2871 16.5 10.1089 16.4282 9.96536 16.2846C9.82177 16.141 9.74998 15.9628 9.74998 15.75V13.5H5.24995V15.75C5.24995 15.9628 5.17815 16.141 5.03457 16.2846C4.89098 16.4282 4.71278 16.5 4.49996 16.5C4.28715 16.5 4.10895 16.4282 3.96536 16.2846C3.82177 16.141 3.74998 15.9628 3.74998 15.75V13.5H1.80768C1.73075 13.5 1.66023 13.532 1.59612 13.5961C1.53202 13.6602 1.49996 13.7307 1.49996 13.8077V25.1922C1.49996 25.2692 1.53202 25.3397 1.59612 25.4038C1.66023 25.4679 1.73075 25.5 1.80768 25.5ZM5.24995 12H9.74998V11.75C9.74998 11.1231 9.53171 10.5913 9.09517 10.1548C8.65863 9.71823 8.12689 9.49996 7.49996 9.49996C6.87303 9.49996 6.3413 9.71823 5.90476 10.1548C5.46822 10.5913 5.24995 11.1231 5.24995 11.75V12ZM1.49996 25.5C1.49996 25.5 1.49996 25.4679 1.49996 25.4038C1.49996 25.3397 1.49996 25.2692 1.49996 25.1922V13.8077C1.49996 13.7307 1.49996 13.6602 1.49996 13.5961C1.49996 13.532 1.49996 13.5 1.49996 13.5C1.49996 13.5 1.49996 13.532 1.49996 13.5961C1.49996 13.6602 1.49996 13.7307 1.49996 13.8077V25.1922C1.49996 25.2692 1.49996 25.3397 1.49996 25.4038C1.49996 25.4679 1.49996 25.5 1.49996 25.5Z" fill="white"/>
<rect x="4.63989" width="18.38" height="19" rx="9.19" fill="#D4AF37"/>
<path d="M13.8216 13.0977C13.2936 13.0977 12.825 13.007 12.4159 12.8258C12.0067 12.6446 11.6842 12.3933 11.4484 12.072C11.2126 11.7506 11.091 11.3794 11.0835 10.9584H12.5853C12.5943 11.1403 12.6534 11.2992 12.7628 11.4352C12.8721 11.5712 13.0193 11.6765 13.2042 11.7511C13.3891 11.8257 13.5962 11.863 13.8254 11.863C14.0646 11.863 14.2758 11.821 14.4591 11.7372C14.6424 11.6534 14.7861 11.5366 14.8903 11.3867C14.9945 11.2368 15.0466 11.0638 15.0466 10.8677C15.0466 10.6655 14.9921 10.4881 14.8831 10.3354C14.7741 10.1826 14.6185 10.0629 14.4162 9.97623C14.2139 9.88955 13.9716 9.8462 13.6894 9.8462H13.0168V8.7373H13.6894C13.9251 8.7373 14.1332 8.69613 14.3136 8.61381C14.4941 8.53149 14.6348 8.41733 14.7359 8.27134C14.837 8.12534 14.8876 7.95515 14.8876 7.76075C14.8876 7.5726 14.8439 7.40835 14.7566 7.26799C14.6693 7.12763 14.5468 7.01791 14.3893 6.93884C14.2318 6.85978 14.0476 6.82024 13.8366 6.82024C13.6244 6.82024 13.4303 6.85797 13.2542 6.93342C13.0782 7.00888 12.9368 7.11511 12.8301 7.25212C12.7234 7.38913 12.6678 7.55272 12.6633 7.74288H11.2292C11.2352 7.32687 11.3531 6.95994 11.5829 6.6421C11.8126 6.32426 12.1239 6.07561 12.5167 5.89614C12.9094 5.71668 13.3524 5.62695 13.8456 5.62695C14.3438 5.62695 14.7798 5.7181 15.1535 5.90039C15.5272 6.08268 15.8174 6.32809 16.0239 6.63662C16.2305 6.94515 16.3337 7.28952 16.3337 7.66973C16.3337 8.07637 16.2079 8.41633 15.9563 8.6896C15.7047 8.96288 15.3766 9.13815 14.9721 9.21543V9.26875C15.3253 9.31406 15.6227 9.41339 15.8644 9.56675C16.1061 9.7201 16.2887 9.91577 16.4122 10.1538C16.5357 10.3917 16.5974 10.6611 16.5974 10.9618C16.5974 11.3748 16.4786 11.7423 16.2409 12.0645C16.0032 12.3867 15.6756 12.6394 15.2582 12.8227C14.8408 13.006 14.3619 13.0977 13.8216 13.0977Z" fill="#5D3E25"/>
</svg>
