<svg width="488" height="133" viewBox="0 0 488 133" fill="none" xmlns="http://www.w3.org/2000/svg">
<mask id="path-1-inside-1_27_197" fill="white">
<path d="M0 66.5C0 29.7731 29.7731 0 66.5 0H421.5C458.227 0 488 29.7731 488 66.5C488 103.227 458.227 133 421.5 133H66.5C29.7731 133 0 103.227 0 66.5Z"/>
</mask>
<path d="M0 66.5C0 29.7731 29.7731 0 66.5 0H421.5C458.227 0 488 29.7731 488 66.5C488 103.227 458.227 133 421.5 133H66.5C29.7731 133 0 103.227 0 66.5Z" fill="#2C2C2C"/>
<path d="M0 66.5M488 66.5M488 66.5M0 66.5M66.5 0V1H421.5V0V-1H66.5V0ZM488 66.5M421.5 133V132H66.5V133V134H421.5V133ZM0 66.5M66.5 133V132C30.3253 132 1 102.675 1 66.5H0H-1C-1 103.779 29.2208 134 66.5 134V133ZM488 66.5H487C487 102.675 457.675 132 421.5 132V133V134C458.779 134 489 103.779 489 66.5H488ZM421.5 0V1C457.675 1 487 30.3253 487 66.5H488H489C489 29.2208 458.779 -1 421.5 -1V0ZM66.5 0V-1C29.2208 -1 -1 29.2208 -1 66.5H0H1C1 30.3253 30.3253 1 66.5 1V0Z" fill="#2C2C2C" mask="url(#path-1-inside-1_27_197)"/>
<path d="M117.659 83.5H113.227L126.045 48.5909H130.409L143.227 83.5H138.795L128.364 54.1136H128.091L117.659 83.5ZM119.295 69.8636H137.159V73.6136H119.295V69.8636ZM158.006 84.0455C155.824 84.0455 153.898 83.4943 152.227 82.392C150.557 81.2784 149.25 79.7102 148.307 77.6875C147.364 75.6534 146.892 73.25 146.892 70.4773C146.892 67.7273 147.364 65.3409 148.307 63.3182C149.25 61.2955 150.563 59.733 152.244 58.6307C153.926 57.5284 155.869 56.9773 158.074 56.9773C159.778 56.9773 161.125 57.2614 162.114 57.8295C163.114 58.3864 163.875 59.0227 164.398 59.7386C164.932 60.4432 165.347 61.0227 165.642 61.4773H165.983V48.5909H170.006V83.5H166.119V79.4773H165.642C165.347 79.9545 164.926 80.5568 164.381 81.2841C163.835 82 163.057 82.642 162.045 83.2102C161.034 83.767 159.688 84.0455 158.006 84.0455ZM158.551 80.4318C160.165 80.4318 161.528 80.0114 162.642 79.1705C163.756 78.3182 164.602 77.142 165.182 75.642C165.761 74.1307 166.051 72.3864 166.051 70.4091C166.051 68.4545 165.767 66.7443 165.199 65.2784C164.631 63.8011 163.79 62.6534 162.676 61.8352C161.563 61.0057 160.188 60.5909 158.551 60.5909C156.847 60.5909 155.426 61.0284 154.29 61.9034C153.165 62.767 152.318 63.9432 151.75 65.4318C151.193 66.9091 150.915 68.5682 150.915 70.4091C150.915 72.2727 151.199 73.9659 151.767 75.4886C152.347 77 153.199 78.2045 154.324 79.1023C155.46 79.9886 156.869 80.4318 158.551 80.4318ZM187.818 84.0455C185.636 84.0455 183.71 83.4943 182.04 82.392C180.369 81.2784 179.063 79.7102 178.119 77.6875C177.176 75.6534 176.705 73.25 176.705 70.4773C176.705 67.7273 177.176 65.3409 178.119 63.3182C179.063 61.2955 180.375 59.733 182.057 58.6307C183.739 57.5284 185.682 56.9773 187.886 56.9773C189.591 56.9773 190.938 57.2614 191.926 57.8295C192.926 58.3864 193.688 59.0227 194.21 59.7386C194.744 60.4432 195.159 61.0227 195.455 61.4773H195.795V48.5909H199.818V83.5H195.932V79.4773H195.455C195.159 79.9545 194.739 80.5568 194.193 81.2841C193.648 82 192.869 82.642 191.858 83.2102C190.847 83.767 189.5 84.0455 187.818 84.0455ZM188.364 80.4318C189.977 80.4318 191.341 80.0114 192.455 79.1705C193.568 78.3182 194.415 77.142 194.994 75.642C195.574 74.1307 195.864 72.3864 195.864 70.4091C195.864 68.4545 195.58 66.7443 195.011 65.2784C194.443 63.8011 193.602 62.6534 192.489 61.8352C191.375 61.0057 190 60.5909 188.364 60.5909C186.659 60.5909 185.239 61.0284 184.102 61.9034C182.977 62.767 182.131 63.9432 181.562 65.4318C181.006 66.9091 180.727 68.5682 180.727 70.4091C180.727 72.2727 181.011 73.9659 181.58 75.4886C182.159 77 183.011 78.2045 184.136 79.1023C185.273 79.9886 186.682 80.4318 188.364 80.4318ZM232.631 57.3182V60.7273H219.062V57.3182H232.631ZM223.017 51.0455H227.04V76C227.04 77.1364 227.205 77.9886 227.534 78.5568C227.875 79.1136 228.307 79.4886 228.83 79.6818C229.364 79.8636 229.926 79.9545 230.517 79.9545C230.96 79.9545 231.324 79.9318 231.608 79.8864C231.892 79.8295 232.119 79.7841 232.29 79.75L233.108 83.3636C232.835 83.4659 232.455 83.5682 231.966 83.6705C231.477 83.7841 230.858 83.8409 230.108 83.8409C228.972 83.8409 227.858 83.5966 226.767 83.108C225.688 82.6193 224.79 81.875 224.074 80.875C223.369 79.875 223.017 78.6136 223.017 77.0909V51.0455ZM249.037 84.0455C246.673 84.0455 244.599 83.483 242.815 82.358C241.043 81.233 239.656 79.6591 238.656 77.6364C237.668 75.6136 237.173 73.25 237.173 70.5455C237.173 67.8182 237.668 65.4375 238.656 63.4034C239.656 61.3693 241.043 59.7898 242.815 58.6648C244.599 57.5398 246.673 56.9773 249.037 56.9773C251.401 56.9773 253.469 57.5398 255.241 58.6648C257.026 59.7898 258.412 61.3693 259.401 63.4034C260.401 65.4375 260.901 67.8182 260.901 70.5455C260.901 73.25 260.401 75.6136 259.401 77.6364C258.412 79.6591 257.026 81.233 255.241 82.358C253.469 83.483 251.401 84.0455 249.037 84.0455ZM249.037 80.4318C250.832 80.4318 252.31 79.9716 253.469 79.0511C254.628 78.1307 255.486 76.9205 256.043 75.4205C256.599 73.9205 256.878 72.2955 256.878 70.5455C256.878 68.7955 256.599 67.1648 256.043 65.6534C255.486 64.142 254.628 62.9205 253.469 61.9886C252.31 61.0568 250.832 60.5909 249.037 60.5909C247.241 60.5909 245.764 61.0568 244.605 61.9886C243.446 62.9205 242.588 64.142 242.031 65.6534C241.474 67.1648 241.196 68.7955 241.196 70.5455C241.196 72.2955 241.474 73.9205 242.031 75.4205C242.588 76.9205 243.446 78.1307 244.605 79.0511C245.764 79.9716 247.241 80.4318 249.037 80.4318ZM309.178 59.5H304.95C304.7 58.2841 304.263 57.2159 303.638 56.2955C303.024 55.375 302.274 54.6023 301.388 53.9773C300.513 53.3409 299.541 52.8636 298.473 52.5455C297.405 52.2273 296.291 52.0682 295.132 52.0682C293.018 52.0682 291.104 52.6023 289.388 53.6705C287.683 54.7386 286.325 56.3125 285.314 58.392C284.314 60.4716 283.814 63.0227 283.814 66.0455C283.814 69.0682 284.314 71.6193 285.314 73.6989C286.325 75.7784 287.683 77.3523 289.388 78.4205C291.104 79.4886 293.018 80.0227 295.132 80.0227C296.291 80.0227 297.405 79.8636 298.473 79.5455C299.541 79.2273 300.513 78.7557 301.388 78.1307C302.274 77.4943 303.024 76.7159 303.638 75.7955C304.263 74.8636 304.7 73.7955 304.95 72.5909H309.178C308.859 74.375 308.28 75.9716 307.439 77.3807C306.598 78.7898 305.553 79.9886 304.303 80.9773C303.053 81.9545 301.649 82.6989 300.092 83.2102C298.547 83.7216 296.893 83.9773 295.132 83.9773C292.155 83.9773 289.507 83.25 287.189 81.7955C284.871 80.3409 283.047 78.2727 281.717 75.5909C280.388 72.9091 279.723 69.7273 279.723 66.0455C279.723 62.3636 280.388 59.1818 281.717 56.5C283.047 53.8182 284.871 51.75 287.189 50.2955C289.507 48.8409 292.155 48.1136 295.132 48.1136C296.893 48.1136 298.547 48.3693 300.092 48.8807C301.649 49.392 303.053 50.142 304.303 51.1307C305.553 52.108 306.598 53.3011 307.439 54.7102C308.28 56.108 308.859 57.7045 309.178 59.5ZM323.168 84.1136C321.509 84.1136 320.003 83.8011 318.651 83.1761C317.298 82.5398 316.224 81.625 315.429 80.4318C314.634 79.2273 314.236 77.7727 314.236 76.0682C314.236 74.5682 314.531 73.3523 315.122 72.4205C315.713 71.4773 316.503 70.7386 317.491 70.2045C318.48 69.6705 319.571 69.2727 320.764 69.0114C321.969 68.7386 323.179 68.5227 324.395 68.3636C325.986 68.1591 327.276 68.0057 328.264 67.9034C329.264 67.7898 329.991 67.6023 330.446 67.3409C330.912 67.0795 331.145 66.625 331.145 65.9773V65.8409C331.145 64.1591 330.685 62.8523 329.764 61.9205C328.855 60.9886 327.474 60.5227 325.622 60.5227C323.702 60.5227 322.196 60.9432 321.105 61.7841C320.014 62.625 319.247 63.5227 318.804 64.4773L314.986 63.1136C315.668 61.5227 316.577 60.2841 317.713 59.3977C318.861 58.5 320.111 57.875 321.463 57.5227C322.827 57.1591 324.168 56.9773 325.486 56.9773C326.327 56.9773 327.293 57.0795 328.384 57.2841C329.486 57.4773 330.548 57.8807 331.571 58.4943C332.605 59.108 333.463 60.0341 334.145 61.2727C334.827 62.5114 335.168 64.1705 335.168 66.25V83.5H331.145V79.9545H330.94C330.668 80.5227 330.213 81.1307 329.577 81.7784C328.94 82.4261 328.094 82.9773 327.037 83.4318C325.98 83.8864 324.69 84.1136 323.168 84.1136ZM323.781 80.5C325.372 80.5 326.713 80.1875 327.804 79.5625C328.906 78.9375 329.736 78.1307 330.293 77.142C330.861 76.1534 331.145 75.1136 331.145 74.0227V70.3409C330.974 70.5455 330.599 70.733 330.02 70.9034C329.452 71.0625 328.793 71.2045 328.043 71.3295C327.304 71.4432 326.582 71.5455 325.878 71.6364C325.185 71.7159 324.622 71.7841 324.19 71.8409C323.145 71.9773 322.168 72.1989 321.259 72.5057C320.361 72.8011 319.634 73.25 319.077 73.8523C318.531 74.4432 318.259 75.25 318.259 76.2727C318.259 77.6705 318.776 78.7273 319.81 79.4432C320.855 80.1477 322.179 80.5 323.781 80.5ZM342.51 83.5V57.3182H346.396V61.2727H346.669C347.146 59.9773 348.01 58.9261 349.26 58.1193C350.51 57.3125 351.919 56.9091 353.487 56.9091C353.783 56.9091 354.152 56.9148 354.595 56.9261C355.038 56.9375 355.374 56.9545 355.601 56.9773V61.0682C355.464 61.0341 355.152 60.983 354.663 60.9148C354.186 60.8352 353.68 60.7955 353.146 60.7955C351.874 60.7955 350.737 61.0625 349.737 61.5966C348.749 62.1193 347.964 62.8466 347.385 63.7784C346.817 64.6989 346.533 65.75 346.533 66.9318V83.5H342.51ZM373.396 57.3182V60.7273H359.828V57.3182H373.396ZM363.783 51.0455H367.805V76C367.805 77.1364 367.97 77.9886 368.3 78.5568C368.641 79.1136 369.072 79.4886 369.595 79.6818C370.129 79.8636 370.692 79.9545 371.283 79.9545C371.726 79.9545 372.089 79.9318 372.374 79.8864C372.658 79.8295 372.885 79.7841 373.055 79.75L373.874 83.3636C373.601 83.4659 373.22 83.5682 372.732 83.6705C372.243 83.7841 371.624 83.8409 370.874 83.8409C369.737 83.8409 368.624 83.5966 367.533 83.108C366.453 82.6193 365.555 81.875 364.839 80.875C364.135 79.875 363.783 78.6136 363.783 77.0909V51.0455Z" fill="#F5F5F5"/>
</svg>
