<svg width="505" height="117" viewBox="0 0 505 117" fill="none" xmlns="http://www.w3.org/2000/svg">
<mask id="path-1-inside-1_24_250" fill="white">
<path d="M0 58.5C0 26.1913 26.1913 0 58.5 0H446.5C478.809 0 505 26.1913 505 58.5C505 90.8087 478.809 117 446.5 117H58.5C26.1913 117 0 90.8087 0 58.5Z"/>
</mask>
<path d="M0 58.5C0 26.1913 26.1913 0 58.5 0H446.5C478.809 0 505 26.1913 505 58.5C505 90.8087 478.809 117 446.5 117H58.5C26.1913 117 0 90.8087 0 58.5Z" fill="#2C2C2C"/>
<path d="M0 58.5M505 58.5M505 58.5M0 58.5M58.5 0V1H446.5V0V-1H58.5V0ZM505 58.5M446.5 117V116H58.5V117V118H446.5V117ZM0 58.5M58.5 117V116C26.7436 116 1 90.2564 1 58.5H0H-1C-1 91.3609 25.639 118 58.5 118V117ZM505 58.5H504C504 90.2564 478.256 116 446.5 116V117V118C479.361 118 506 91.3609 506 58.5H505ZM446.5 0V1C478.256 1 504 26.7436 504 58.5H505H506C506 25.6391 479.361 -1 446.5 -1V0ZM58.5 0V-1C25.6391 -1 -1 25.6391 -1 58.5H0H1C1 26.7436 26.7436 1 58.5 1V0Z" fill="#2C2C2C" mask="url(#path-1-inside-1_24_250)"/>
<path d="M103.091 51.5C102.716 50.3523 102.222 49.3239 101.608 48.4148C101.006 47.4943 100.284 46.7102 99.4432 46.0625C98.6136 45.4148 97.6705 44.9205 96.6136 44.5795C95.5568 44.2386 94.3977 44.0682 93.1364 44.0682C91.0682 44.0682 89.1875 44.6023 87.4943 45.6705C85.8011 46.7386 84.4545 48.3125 83.4545 50.392C82.4545 52.4716 81.9545 55.0227 81.9545 58.0455C81.9545 61.0682 82.4602 63.6193 83.4716 65.6989C84.483 67.7784 85.8523 69.3523 87.5795 70.4205C89.3068 71.4886 91.25 72.0227 93.4091 72.0227C95.4091 72.0227 97.1705 71.5966 98.6932 70.7443C100.227 69.8807 101.42 68.6648 102.273 67.0966C103.136 65.517 103.568 63.6591 103.568 61.5227L104.864 61.7955H94.3636V58.0455H107.659V61.7955C107.659 64.6705 107.045 67.1705 105.818 69.2955C104.602 71.4205 102.92 73.0682 100.773 74.2386C98.6364 75.3977 96.1818 75.9773 93.4091 75.9773C90.3182 75.9773 87.6023 75.25 85.2614 73.7955C82.9318 72.3409 81.1136 70.2727 79.8068 67.5909C78.5114 64.9091 77.8636 61.7273 77.8636 58.0455C77.8636 55.2841 78.233 52.8011 78.9716 50.5966C79.7216 48.3807 80.7784 46.4943 82.142 44.9375C83.5057 43.3807 85.1193 42.1875 86.983 41.358C88.8466 40.5284 90.8977 40.1136 93.1364 40.1136C94.9773 40.1136 96.6932 40.392 98.2841 40.9489C99.8864 41.4943 101.312 42.2727 102.562 43.2841C103.824 44.2841 104.875 45.483 105.716 46.8807C106.557 48.267 107.136 49.8068 107.455 51.5H103.091ZM124.99 76.0455C122.626 76.0455 120.553 75.483 118.768 74.358C116.996 73.233 115.609 71.6591 114.609 69.6364C113.621 67.6136 113.126 65.25 113.126 62.5455C113.126 59.8182 113.621 57.4375 114.609 55.4034C115.609 53.3693 116.996 51.7898 118.768 50.6648C120.553 49.5398 122.626 48.9773 124.99 48.9773C127.354 48.9773 129.422 49.5398 131.195 50.6648C132.979 51.7898 134.365 53.3693 135.354 55.4034C136.354 57.4375 136.854 59.8182 136.854 62.5455C136.854 65.25 136.354 67.6136 135.354 69.6364C134.365 71.6591 132.979 73.233 131.195 74.358C129.422 75.483 127.354 76.0455 124.99 76.0455ZM124.99 72.4318C126.786 72.4318 128.263 71.9716 129.422 71.0511C130.581 70.1307 131.439 68.9205 131.996 67.4205C132.553 65.9205 132.831 64.2955 132.831 62.5455C132.831 60.7955 132.553 59.1648 131.996 57.6534C131.439 56.142 130.581 54.9205 129.422 53.9886C128.263 53.0568 126.786 52.5909 124.99 52.5909C123.195 52.5909 121.717 53.0568 120.558 53.9886C119.399 54.9205 118.541 56.142 117.984 57.6534C117.428 59.1648 117.149 60.7955 117.149 62.5455C117.149 64.2955 117.428 65.9205 117.984 67.4205C118.541 68.9205 119.399 70.1307 120.558 71.0511C121.717 71.9716 123.195 72.4318 124.99 72.4318ZM167.881 49.3182V52.7273H154.312V49.3182H167.881ZM158.267 43.0455H162.29V68C162.29 69.1364 162.455 69.9886 162.784 70.5568C163.125 71.1136 163.557 71.4886 164.08 71.6818C164.614 71.8636 165.176 71.9545 165.767 71.9545C166.21 71.9545 166.574 71.9318 166.858 71.8864C167.142 71.8295 167.369 71.7841 167.54 71.75L168.358 75.3636C168.085 75.4659 167.705 75.5682 167.216 75.6705C166.727 75.7841 166.108 75.8409 165.358 75.8409C164.222 75.8409 163.108 75.5966 162.017 75.108C160.938 74.6193 160.04 73.875 159.324 72.875C158.619 71.875 158.267 70.6136 158.267 69.0909V43.0455ZM184.287 76.0455C181.923 76.0455 179.849 75.483 178.065 74.358C176.293 73.233 174.906 71.6591 173.906 69.6364C172.918 67.6136 172.423 65.25 172.423 62.5455C172.423 59.8182 172.918 57.4375 173.906 55.4034C174.906 53.3693 176.293 51.7898 178.065 50.6648C179.849 49.5398 181.923 48.9773 184.287 48.9773C186.651 48.9773 188.719 49.5398 190.491 50.6648C192.276 51.7898 193.662 53.3693 194.651 55.4034C195.651 57.4375 196.151 59.8182 196.151 62.5455C196.151 65.25 195.651 67.6136 194.651 69.6364C193.662 71.6591 192.276 73.233 190.491 74.358C188.719 75.483 186.651 76.0455 184.287 76.0455ZM184.287 72.4318C186.082 72.4318 187.56 71.9716 188.719 71.0511C189.878 70.1307 190.736 68.9205 191.293 67.4205C191.849 65.9205 192.128 64.2955 192.128 62.5455C192.128 60.7955 191.849 59.1648 191.293 57.6534C190.736 56.142 189.878 54.9205 188.719 53.9886C187.56 53.0568 186.082 52.5909 184.287 52.5909C182.491 52.5909 181.014 53.0568 179.855 53.9886C178.696 54.9205 177.838 56.142 177.281 57.6534C176.724 59.1648 176.446 60.7955 176.446 62.5455C176.446 64.2955 176.724 65.9205 177.281 67.4205C177.838 68.9205 178.696 70.1307 179.855 71.0511C181.014 71.9716 182.491 72.4318 184.287 72.4318ZM244.428 51.5H240.2C239.95 50.2841 239.513 49.2159 238.888 48.2955C238.274 47.375 237.524 46.6023 236.638 45.9773C235.763 45.3409 234.791 44.8636 233.723 44.5455C232.655 44.2273 231.541 44.0682 230.382 44.0682C228.268 44.0682 226.354 44.6023 224.638 45.6705C222.933 46.7386 221.575 48.3125 220.564 50.392C219.564 52.4716 219.064 55.0227 219.064 58.0455C219.064 61.0682 219.564 63.6193 220.564 65.6989C221.575 67.7784 222.933 69.3523 224.638 70.4205C226.354 71.4886 228.268 72.0227 230.382 72.0227C231.541 72.0227 232.655 71.8636 233.723 71.5455C234.791 71.2273 235.763 70.7557 236.638 70.1307C237.524 69.4943 238.274 68.7159 238.888 67.7955C239.513 66.8636 239.95 65.7955 240.2 64.5909H244.428C244.109 66.375 243.53 67.9716 242.689 69.3807C241.848 70.7898 240.803 71.9886 239.553 72.9773C238.303 73.9545 236.899 74.6989 235.342 75.2102C233.797 75.7216 232.143 75.9773 230.382 75.9773C227.405 75.9773 224.757 75.25 222.439 73.7955C220.121 72.3409 218.297 70.2727 216.967 67.5909C215.638 64.9091 214.973 61.7273 214.973 58.0455C214.973 54.3636 215.638 51.1818 216.967 48.5C218.297 45.8182 220.121 43.75 222.439 42.2955C224.757 40.8409 227.405 40.1136 230.382 40.1136C232.143 40.1136 233.797 40.3693 235.342 40.8807C236.899 41.392 238.303 42.142 239.553 43.1307C240.803 44.108 241.848 45.3011 242.689 46.7102C243.53 48.108 244.109 49.7045 244.428 51.5ZM254.736 59.75V75.5H250.713V40.5909H254.736V53.4091H255.077C255.69 52.0568 256.611 50.983 257.838 50.1875C259.077 49.3807 260.724 48.9773 262.781 48.9773C264.565 48.9773 266.128 49.3352 267.469 50.0511C268.81 50.7557 269.849 51.8409 270.588 53.3068C271.338 54.7614 271.713 56.6136 271.713 58.8636V75.5H267.69V59.1364C267.69 57.0568 267.151 55.4489 266.071 54.3125C265.003 53.1648 263.52 52.5909 261.622 52.5909C260.304 52.5909 259.122 52.8693 258.077 53.4261C257.043 53.983 256.224 54.7955 255.622 55.8636C255.031 56.9318 254.736 58.2273 254.736 59.75ZM290.05 76.0455C287.527 76.0455 285.351 75.4886 283.521 74.375C281.703 73.25 280.3 71.6818 279.311 69.6705C278.334 67.6477 277.845 65.2955 277.845 62.6136C277.845 59.9318 278.334 57.5682 279.311 55.5227C280.3 53.4659 281.675 51.8636 283.436 50.7159C285.209 49.5568 287.277 48.9773 289.641 48.9773C291.004 48.9773 292.351 49.2045 293.68 49.6591C295.01 50.1136 296.22 50.8523 297.311 51.875C298.402 52.8864 299.271 54.2273 299.919 55.8977C300.567 57.5682 300.891 59.625 300.891 62.0682V63.7727H280.709V60.2955H296.8C296.8 58.8182 296.504 57.5 295.913 56.3409C295.334 55.1818 294.504 54.267 293.425 53.5966C292.357 52.9261 291.095 52.5909 289.641 52.5909C288.038 52.5909 286.652 52.9886 285.482 53.7841C284.322 54.5682 283.43 55.5909 282.805 56.8523C282.18 58.1136 281.868 59.4659 281.868 60.9091V63.2273C281.868 65.2045 282.209 66.8807 282.891 68.2557C283.584 69.6193 284.544 70.6591 285.771 71.375C286.999 72.0795 288.425 72.4318 290.05 72.4318C291.107 72.4318 292.061 72.2841 292.913 71.9886C293.777 71.6818 294.521 71.2273 295.146 70.625C295.771 70.0114 296.254 69.25 296.595 68.3409L300.482 69.4318C300.072 70.75 299.385 71.9091 298.419 72.9091C297.453 73.8977 296.26 74.6705 294.839 75.2273C293.419 75.7727 291.822 76.0455 290.05 76.0455ZM317.646 76.0455C315.192 76.0455 313.078 75.4659 311.305 74.3068C309.533 73.1477 308.169 71.5511 307.214 69.517C306.26 67.483 305.783 65.1591 305.783 62.5455C305.783 59.8864 306.271 57.5398 307.249 55.5057C308.237 53.4602 309.612 51.8636 311.374 50.7159C313.146 49.5568 315.214 48.9773 317.578 48.9773C319.419 48.9773 321.078 49.3182 322.555 50C324.033 50.6818 325.243 51.6364 326.186 52.8636C327.129 54.0909 327.714 55.5227 327.942 57.1591H323.919C323.612 55.9659 322.93 54.9091 321.874 53.9886C320.828 53.0568 319.419 52.5909 317.646 52.5909C316.078 52.5909 314.703 53 313.521 53.8182C312.351 54.625 311.436 55.767 310.777 57.2443C310.129 58.7102 309.805 60.4318 309.805 62.4091C309.805 64.4318 310.124 66.1932 310.76 67.6932C311.408 69.1932 312.317 70.358 313.487 71.1875C314.669 72.017 316.055 72.4318 317.646 72.4318C318.692 72.4318 319.641 72.25 320.493 71.8864C321.345 71.5227 322.067 71 322.658 70.3182C323.249 69.6364 323.669 68.8182 323.919 67.8636H327.942C327.714 69.4091 327.152 70.8011 326.254 72.0398C325.368 73.267 324.192 74.2443 322.726 74.9716C321.271 75.6875 319.578 76.0455 317.646 76.0455ZM337.572 65.9545L337.504 60.9773H338.322L349.777 49.3182H354.754L342.55 61.6591H342.209L337.572 65.9545ZM333.822 75.5V40.5909H337.845V75.5H333.822ZM350.459 75.5L340.232 62.5455L343.095 59.75L355.572 75.5H350.459ZM369.49 76.0455C367.126 76.0455 365.053 75.483 363.268 74.358C361.496 73.233 360.109 71.6591 359.109 69.6364C358.121 67.6136 357.626 65.25 357.626 62.5455C357.626 59.8182 358.121 57.4375 359.109 55.4034C360.109 53.3693 361.496 51.7898 363.268 50.6648C365.053 49.5398 367.126 48.9773 369.49 48.9773C371.854 48.9773 373.922 49.5398 375.695 50.6648C377.479 51.7898 378.865 53.3693 379.854 55.4034C380.854 57.4375 381.354 59.8182 381.354 62.5455C381.354 65.25 380.854 67.6136 379.854 69.6364C378.865 71.6591 377.479 73.233 375.695 74.358C373.922 75.483 371.854 76.0455 369.49 76.0455ZM369.49 72.4318C371.286 72.4318 372.763 71.9716 373.922 71.0511C375.081 70.1307 375.939 68.9205 376.496 67.4205C377.053 65.9205 377.331 64.2955 377.331 62.5455C377.331 60.7955 377.053 59.1648 376.496 57.6534C375.939 56.142 375.081 54.9205 373.922 53.9886C372.763 53.0568 371.286 52.5909 369.49 52.5909C367.695 52.5909 366.217 53.0568 365.058 53.9886C363.899 54.9205 363.041 56.142 362.484 57.6534C361.928 59.1648 361.649 60.7955 361.649 62.5455C361.649 64.2955 361.928 65.9205 362.484 67.4205C363.041 68.9205 363.899 70.1307 365.058 71.0511C366.217 71.9716 367.695 72.4318 369.49 72.4318ZM403.994 64.7955V49.3182H408.017V75.5H403.994V71.0682H403.722C403.108 72.3977 402.153 73.5284 400.858 74.4602C399.563 75.3807 397.926 75.8409 395.949 75.8409C394.312 75.8409 392.858 75.483 391.585 74.767C390.313 74.0398 389.313 72.9489 388.585 71.4943C387.858 70.0284 387.494 68.1818 387.494 65.9545V49.3182H391.517V65.6818C391.517 67.5909 392.051 69.1136 393.119 70.25C394.199 71.3864 395.574 71.9545 397.244 71.9545C398.244 71.9545 399.261 71.6989 400.295 71.1875C401.341 70.6761 402.216 69.892 402.92 68.8352C403.636 67.7784 403.994 66.4318 403.994 64.7955ZM426.771 49.3182V52.7273H413.203V49.3182H426.771ZM417.158 43.0455H421.18V68C421.18 69.1364 421.345 69.9886 421.675 70.5568C422.016 71.1136 422.447 71.4886 422.97 71.6818C423.504 71.8636 424.067 71.9545 424.658 71.9545C425.101 71.9545 425.464 71.9318 425.749 71.8864C426.033 71.8295 426.26 71.7841 426.43 71.75L427.249 75.3636C426.976 75.4659 426.595 75.5682 426.107 75.6705C425.618 75.7841 424.999 75.8409 424.249 75.8409C423.112 75.8409 421.999 75.5966 420.908 75.108C419.828 74.6193 418.93 73.875 418.214 72.875C417.51 71.875 417.158 70.6136 417.158 69.0909V43.0455Z" fill="#F5F5F5"/>
</svg>
