<svg width="64" height="25" viewBox="0 0 64 25" fill="none" xmlns="http://www.w3.org/2000/svg">
<path d="M4 11.5V4H11.5V11.5H4ZM4 20.9999V13.5H11.5V20.9999H4ZM13.5 11.5V4H20.9999V11.5H13.5ZM13.5 20.9999V13.5H20.9999V20.9999H13.5ZM5.49996 10H10V5.49996H5.49996V10ZM14.9999 10H19.5V5.49996H14.9999V10ZM14.9999 19.5H19.5V14.9999H14.9999V19.5ZM5.49996 19.5H10V14.9999H5.49996V19.5Z" fill="#5D3E25"/>
<path d="M47.2399 18.5H58.1822C58.2592 18.5 58.3297 18.4679 58.3938 18.4038C58.4579 18.3397 58.49 18.2692 58.49 18.1922V15.5749H47.2399V18.5ZM42.49 9.42498H45.74V6.49996H42.7977C42.7207 6.49996 42.6502 6.53202 42.5861 6.59612C42.522 6.66023 42.49 6.73075 42.49 6.80768V9.42498ZM42.49 14.1H45.74V10.9249H42.49V14.1ZM42.7977 18.5H45.74V15.5749H42.49V18.1922C42.49 18.2692 42.522 18.3397 42.5861 18.4038C42.6502 18.4679 42.7207 18.5 42.7977 18.5ZM47.2399 14.1H58.49V10.9249H47.2399V14.1ZM47.2399 9.42498H58.49V6.80768C58.49 6.73075 58.4579 6.66023 58.3938 6.59612C58.3297 6.53202 58.2592 6.49996 58.1822 6.49996H47.2399V9.42498ZM42.7977 19.9999C42.2925 19.9999 41.865 19.8249 41.515 19.4749C41.165 19.1249 40.99 18.6974 40.99 18.1922V6.80768C40.99 6.30255 41.165 5.87499 41.515 5.525C41.865 5.175 42.2925 5 42.7977 5H58.1822C58.6874 5 59.1149 5.175 59.4649 5.525C59.8149 5.87499 59.9899 6.30255 59.9899 6.80768V18.1922C59.9899 18.6974 59.8149 19.1249 59.4649 19.4749C59.1149 19.8249 58.6874 19.9999 58.1822 19.9999H42.7977Z" fill="#94A3B8"/>
</svg>
