<svg width="363" height="29" viewBox="0 0 363 29" fill="none" xmlns="http://www.w3.org/2000/svg">
<path d="M9.49996 28.2001C8.18715 28.2001 6.95286 27.9504 5.79709 27.4511C4.64133 26.9517 3.63588 26.2745 2.78076 25.4194C1.92563 24.5642 1.24839 23.5588 0.749036 22.403C0.249679 21.2473 0 20.013 0 18.7002C0 17.3873 0.249679 16.1531 0.749036 14.9973C1.24839 13.8415 1.92563 12.8361 2.78076 11.981C3.63588 11.1258 4.64133 10.4486 5.79709 9.94923C6.95286 9.44987 8.18715 9.2002 9.49996 9.2002C10.8128 9.2002 12.0471 9.44987 13.2028 9.94923C14.3586 10.4486 15.364 11.1258 16.2192 11.981C17.0743 12.8361 17.7515 13.8415 18.2509 14.9973C18.7502 16.1531 18.9999 17.3873 18.9999 18.7002V19.9194C18.9999 20.8322 18.6865 21.6072 18.0595 22.2444C17.4326 22.8815 16.6628 23.2001 15.7499 23.2001C15.1602 23.2001 14.6134 23.0559 14.1096 22.7674C13.6057 22.479 13.2076 22.0822 12.9153 21.577C12.4833 22.0924 11.9727 22.4918 11.3836 22.7751C10.7945 23.0585 10.1666 23.2001 9.49996 23.2001C8.25126 23.2001 7.18908 22.7623 6.31345 21.8867C5.43782 21.011 5 19.9489 5 18.7002C5 17.4515 5.43782 16.3893 6.31345 15.5136C7.18908 14.638 8.25126 14.2002 9.49996 14.2002C10.7487 14.2002 11.8108 14.638 12.6865 15.5136C13.5621 16.3893 13.9999 17.4515 13.9999 18.7002V19.9194C13.9999 20.4104 14.1688 20.83 14.5067 21.178C14.8445 21.5261 15.2589 21.7002 15.7499 21.7002C16.241 21.7002 16.6554 21.5261 16.9932 21.178C17.3311 20.83 17.5 20.4104 17.5 19.9194V18.7002C17.5 16.4668 16.725 14.5752 15.175 13.0252C13.625 11.4752 11.7333 10.7002 9.49996 10.7002C7.26663 10.7002 5.37496 11.4752 3.82496 13.0252C2.27496 14.5752 1.49996 16.4668 1.49996 18.7002C1.49996 20.9335 2.27496 22.8252 3.82496 24.3752C5.37496 25.9252 7.26663 26.7002 9.49996 26.7002H14.5V28.2001H9.49996ZM9.49996 21.7002C10.3333 21.7002 11.0416 21.4085 11.625 20.8252C12.2083 20.2418 12.5 19.5335 12.5 18.7002C12.5 17.8668 12.2083 17.1585 11.625 16.5752C11.0416 15.9918 10.3333 15.7002 9.49996 15.7002C8.66663 15.7002 7.9583 15.9918 7.37496 16.5752C6.79163 17.1585 6.49996 17.8668 6.49996 18.7002C6.49996 19.5335 6.79163 20.2418 7.37496 20.8252C7.9583 21.4085 8.66663 21.7002 9.49996 21.7002Z" fill="white"/>
<path d="M52.5016 28.2001C51.1877 28.2001 49.9527 27.9508 48.7965 27.4521C47.6404 26.9535 46.6347 26.2767 45.7795 25.4219C44.9243 24.567 44.2472 23.5618 43.7483 22.4062C43.2494 21.2505 43 20.0158 43 18.7018C43 17.3879 43.2493 16.1529 43.748 14.9967C44.2467 13.8406 44.9234 12.8349 45.7783 11.9797C46.6331 11.1245 47.6383 10.4474 48.794 9.94852C49.9496 9.44964 51.1844 9.2002 52.4983 9.2002C53.8122 9.2002 55.0473 9.44953 56.2034 9.94819C57.3595 10.4468 58.3652 11.1236 59.2204 11.9784C60.0757 12.8333 60.7527 13.8385 61.2516 14.9942C61.7505 16.1498 61.9999 17.3846 61.9999 18.6985C61.9999 20.0124 61.7506 21.2475 61.2519 22.4036C60.7533 23.5597 60.0765 24.5654 59.2217 25.4206C58.3668 26.2759 57.3616 26.9529 56.206 27.4518C55.0503 27.9507 53.8156 28.2001 52.5016 28.2001ZM51.5 26.6502V24.7002C50.95 24.7002 50.4791 24.5043 50.0875 24.1127C49.6958 23.721 49.5 23.2502 49.5 22.7002V21.7002L44.7 16.9002C44.65 17.2002 44.6041 17.5002 44.5625 17.8002C44.5208 18.1002 44.5 18.4002 44.5 18.7002C44.5 20.7168 45.1625 22.4835 46.4875 24.0002C47.8125 25.5168 49.4833 26.4002 51.5 26.6502ZM58.4 24.1002C59.0833 23.3502 59.6041 22.5127 59.9625 21.5877C60.3208 20.6627 60.5 19.699 60.5 18.6966C60.5 17.0593 60.0474 15.564 59.1423 14.2108C58.2371 12.8575 57.023 11.8809 55.5 11.2809V11.7002C55.5 12.2502 55.3041 12.721 54.9125 13.1127C54.5208 13.5043 54.05 13.7002 53.5 13.7002H51.5V15.7002C51.5 15.9835 51.4041 16.221 51.2125 16.4127C51.0208 16.6043 50.7833 16.7002 50.5 16.7002H48.5V18.7002H54.5C54.7833 18.7002 55.0208 18.796 55.2125 18.9877C55.4041 19.1793 55.5 19.4168 55.5 19.7002V22.7002H56.5C56.9333 22.7002 57.325 22.8293 57.675 23.0877C58.025 23.346 58.2666 23.6835 58.4 24.1002Z" fill="white"/>
<path d="M100.305 28.2001C99.5569 28.2001 98.9214 27.9384 98.399 27.4149C97.8766 26.8914 97.6154 26.2557 97.6154 25.5078C97.6154 25.4078 97.65 25.1649 97.7192 24.779L90.6077 20.5924C90.3666 20.8424 90.0803 21.0383 89.7487 21.1799C89.417 21.3216 89.0617 21.3924 88.6827 21.3924C87.9375 21.3924 87.3041 21.1296 86.7824 20.604C86.2608 20.0784 86 19.4437 86 18.7002C86 17.9566 86.2608 17.322 86.7824 16.7963C87.3041 16.2707 87.9375 16.0079 88.6827 16.0079C89.0617 16.0079 89.417 16.0787 89.7487 16.2204C90.0803 16.362 90.3666 16.5579 90.6077 16.8079L97.7192 12.6309C97.6795 12.5079 97.6522 12.3874 97.6375 12.2694C97.6227 12.1515 97.6154 12.0258 97.6154 11.8925C97.6154 11.1446 97.8773 10.5089 98.4013 9.98545C98.9252 9.46195 99.5614 9.2002 100.31 9.2002C101.058 9.2002 101.694 9.46217 102.216 9.98611C102.739 10.51 103 11.1463 103 11.8947C103 12.6432 102.738 13.2787 102.215 13.8011C101.691 14.3235 101.055 14.5848 100.308 14.5848C99.9269 14.5848 99.5727 14.5123 99.2451 14.3675C98.9176 14.2226 98.6333 14.0251 98.3923 13.7751L91.2807 17.9617C91.3205 18.0848 91.3477 18.2053 91.3625 18.3232C91.3772 18.4412 91.3846 18.5668 91.3846 18.7002C91.3846 18.8335 91.3772 18.9591 91.3625 19.0771C91.3477 19.195 91.3205 19.3155 91.2807 19.4386L98.3923 23.6252C98.6333 23.3752 98.9176 23.1777 99.2451 23.0329C99.5727 22.888 99.9269 22.8156 100.308 22.8156C101.055 22.8156 101.691 23.0775 102.215 23.6015C102.738 24.1254 103 24.7616 103 25.5101C103 26.2586 102.738 26.894 102.214 27.4165C101.69 27.9389 101.054 28.2001 100.305 28.2001ZM100.311 26.7002C100.65 26.7002 100.933 26.5856 101.16 26.3564C101.387 26.1272 101.5 25.8432 101.5 25.5045C101.5 25.1657 101.386 24.8828 101.158 24.6559C100.93 24.429 100.648 24.3155 100.311 24.3155C99.9741 24.3155 99.6906 24.4295 99.4605 24.6573C99.2304 24.8852 99.1153 25.1676 99.1153 25.5045C99.1153 25.8413 99.2299 26.1248 99.4591 26.355C99.6883 26.5851 99.9722 26.7002 100.311 26.7002ZM88.6827 19.8925C89.0232 19.8925 89.3087 19.7774 89.539 19.5473C89.7694 19.3172 89.8846 19.0348 89.8846 18.7002C89.8846 18.3655 89.7694 18.0832 89.539 17.853C89.3087 17.6229 89.0232 17.5078 88.6827 17.5078C88.3476 17.5078 88.0667 17.6229 87.84 17.853C87.6133 18.0832 87.5 18.3655 87.5 18.7002C87.5 19.0348 87.6133 19.3172 87.84 19.5473C88.0667 19.7774 88.3476 19.8925 88.6827 19.8925ZM100.308 13.0848C100.642 13.0848 100.925 12.9705 101.155 12.742C101.385 12.5135 101.5 12.2303 101.5 11.8925C101.5 11.5547 101.387 11.2715 101.16 11.043C100.933 10.8144 100.65 10.7002 100.311 10.7002C99.9722 10.7002 99.6883 10.8141 99.4591 11.042C99.2299 11.2699 99.1153 11.5522 99.1153 11.8891C99.1153 12.226 99.2304 12.5095 99.4605 12.7396C99.6906 12.9697 99.973 13.0848 100.308 13.0848Z" fill="white"/>
</svg>
