<svg width="222" height="40" viewBox="0 0 222 40" fill="none" xmlns="http://www.w3.org/2000/svg">
<rect width="40" height="40" rx="20" fill="#8B7355"/>
<path d="M19.5399 26.5V16.432H17.2399V14.58H21.7199V26.5H19.5399Z" fill="white"/>
<path d="M64.1281 26.5V25.7L67.4561 22.036C68.1067 21.3213 68.6374 20.7293 69.0481 20.26C69.4587 19.7907 69.7654 19.364 69.9681 18.98C70.1707 18.596 70.2721 18.18 70.2721 17.732C70.2721 17.0173 70.0641 16.468 69.6481 16.084C69.2321 15.7 68.6774 15.508 67.9841 15.508C67.2694 15.508 66.6694 15.7107 66.1841 16.116C65.6987 16.5213 65.3707 17.0867 65.2001 17.812L64.0321 17.556C64.1707 16.9053 64.4214 16.3453 64.7841 15.876C65.1467 15.4067 65.6001 15.0413 66.1441 14.78C66.6881 14.5187 67.2961 14.388 67.9681 14.388C68.6827 14.388 69.3067 14.532 69.8401 14.82C70.3734 15.108 70.7921 15.5027 71.0961 16.004C71.4001 16.5053 71.5521 17.0813 71.5521 17.732C71.5521 18.18 71.4587 18.612 71.2721 19.028C71.0854 19.444 70.8054 19.892 70.4321 20.372C70.0587 20.852 69.5787 21.412 68.9921 22.052L65.9681 25.38H71.8721V26.5H64.1281Z" fill="#0F172A"/>
<path d="M115.832 26.692C115.213 26.692 114.643 26.5853 114.12 26.372C113.597 26.1587 113.141 25.8547 112.752 25.46C112.363 25.0653 112.067 24.596 111.864 24.052L112.888 23.572C113.133 24.1907 113.517 24.6787 114.04 25.036C114.563 25.3933 115.16 25.572 115.832 25.572C116.365 25.572 116.84 25.468 117.256 25.26C117.672 25.052 117.997 24.7507 118.232 24.356C118.467 23.9613 118.584 23.4813 118.584 22.916C118.584 22.3507 118.464 21.8707 118.224 21.476C117.984 21.0813 117.656 20.7827 117.24 20.58C116.824 20.3773 116.349 20.276 115.816 20.276C115.677 20.276 115.525 20.2813 115.36 20.292C115.195 20.3027 115.059 20.3187 114.952 20.34L114.696 19.78L117.912 15.7H112.424V14.58H119.352V15.7L116.344 19.492L116.184 19.284C116.899 19.3053 117.533 19.4733 118.088 19.788C118.643 20.1027 119.077 20.5267 119.392 21.06C119.707 21.5933 119.864 22.212 119.864 22.916C119.864 23.62 119.693 24.2573 119.352 24.828C119.011 25.3987 118.536 25.852 117.928 26.188C117.32 26.524 116.621 26.692 115.832 26.692Z" fill="#0F172A"/>
<path d="M153.648 27V25.24H154.928V27H153.648ZM158.224 27V25.24H159.504V27H158.224ZM162.8 27V25.24H164.08V27H162.8Z" fill="#0F172A"/>
<path d="M201.73 26.692C200.962 26.692 200.277 26.5347 199.674 26.22C199.071 25.9053 198.597 25.4733 198.25 24.924C197.903 24.3747 197.73 23.7533 197.73 23.06C197.73 22.3027 197.946 21.6253 198.378 21.028C198.81 20.4307 199.394 20.0147 200.13 19.78V20.116C199.565 19.8707 199.127 19.5053 198.818 19.02C198.509 18.5347 198.354 18.0147 198.354 17.46C198.354 16.8733 198.503 16.3507 198.802 15.892C199.101 15.4333 199.503 15.068 200.01 14.796C200.517 14.524 201.09 14.388 201.73 14.388C202.381 14.388 202.957 14.5187 203.458 14.78C203.959 15.0413 204.357 15.404 204.65 15.868C204.943 16.332 205.09 16.8627 205.09 17.46C205.09 18.0573 204.93 18.588 204.61 19.052C204.29 19.516 203.869 19.8707 203.346 20.116L203.33 19.78C204.066 20.0147 204.65 20.4307 205.082 21.028C205.514 21.6253 205.73 22.3027 205.73 23.06C205.73 23.7533 205.557 24.3747 205.21 24.924C204.863 25.4733 204.389 25.9053 203.786 26.22C203.183 26.5347 202.498 26.692 201.73 26.692ZM201.73 25.572C202.274 25.572 202.749 25.468 203.154 25.26C203.559 25.052 203.877 24.7587 204.106 24.38C204.335 24.0013 204.45 23.5613 204.45 23.06C204.45 22.5587 204.335 22.1187 204.106 21.74C203.877 21.3613 203.559 21.068 203.154 20.86C202.749 20.652 202.274 20.548 201.73 20.548C201.186 20.548 200.709 20.652 200.298 20.86C199.887 21.068 199.57 21.3613 199.346 21.74C199.122 22.1187 199.01 22.5587 199.01 23.06C199.01 23.5613 199.122 24.0013 199.346 24.38C199.57 24.7587 199.887 25.052 200.298 25.26C200.709 25.468 201.186 25.572 201.73 25.572ZM201.73 19.428C202.125 19.428 202.477 19.3453 202.786 19.18C203.095 19.0147 203.343 18.7853 203.53 18.492C203.717 18.1987 203.81 17.8547 203.81 17.46C203.81 17.0653 203.717 16.724 203.53 16.436C203.343 16.148 203.095 15.9213 202.786 15.756C202.477 15.5907 202.125 15.508 201.73 15.508C201.335 15.508 200.981 15.5907 200.666 15.756C200.351 15.9213 200.101 16.148 199.914 16.436C199.727 16.724 199.634 17.0653 199.634 17.46C199.634 17.8547 199.727 18.1987 199.914 18.492C200.101 18.7853 200.351 19.0147 200.666 19.18C200.981 19.3453 201.335 19.428 201.73 19.428Z" fill="#0F172A"/>
</svg>
