<svg width="50" height="50" viewBox="0 0 50 50" fill="none" xmlns="http://www.w3.org/2000/svg">
<path d="M43.4166 9.60417C42.3526 8.53959 41.0892 7.6951 39.6986 7.11892C38.3081 6.54275 36.8176 6.2462 35.3125 6.2462C33.8073 6.2462 32.3168 6.54275 30.9263 7.11892C29.5358 7.6951 28.2724 8.53959 27.2083 9.60417L25 11.8125L22.7916 9.60417C20.6423 7.45481 17.7271 6.24731 14.6875 6.24731C11.6478 6.24731 8.73266 7.45481 6.5833 9.60417C4.43394 11.7535 3.22644 14.6687 3.22644 17.7083C3.22644 20.748 4.43394 23.6631 6.5833 25.8125L25 44.2292L43.4166 25.8125C44.4812 24.7484 45.3257 23.485 45.9019 22.0945C46.478 20.7039 46.7746 19.2135 46.7746 17.7083C46.7746 16.2031 46.478 14.7127 45.9019 13.3222C45.3257 11.9316 44.4812 10.6682 43.4166 9.60417Z" stroke="#F3F3F3" stroke-width="2" stroke-linecap="round" stroke-linejoin="round"/>
</svg>
