<svg width="44" height="45" viewBox="0 0 44 45" fill="none" xmlns="http://www.w3.org/2000/svg">
<path d="M1.7998 1.9375H8.9998L13.8238 27.8806C13.9884 28.7726 14.4392 29.5739 15.0974 30.1442C15.7555 30.7145 16.5791 31.0174 17.4238 31H34.9198C35.7645 31.0174 36.5881 30.7145 37.2462 30.1442C37.9044 29.5739 38.3552 28.7726 38.5198 27.8806L41.3998 11.625H10.7998M17.9998 40.6875C17.9998 41.7576 17.1939 42.625 16.1998 42.625C15.2057 42.625 14.3998 41.7576 14.3998 40.6875C14.3998 39.6174 15.2057 38.75 16.1998 38.75C17.1939 38.75 17.9998 39.6174 17.9998 40.6875ZM37.7998 40.6875C37.7998 41.7576 36.9939 42.625 35.9998 42.625C35.0057 42.625 34.1998 41.7576 34.1998 40.6875C34.1998 39.6174 35.0057 38.75 35.9998 38.75C36.9939 38.75 37.7998 39.6174 37.7998 40.6875Z" stroke="white" stroke-width="4" stroke-linecap="round" stroke-linejoin="round"/>
</svg>
