<svg width="30" height="33" viewBox="0 0 30 33" fill="none" xmlns="http://www.w3.org/2000/svg">
<path d="M15 16.1458C12.9375 16.1458 11.1719 15.3554 9.70313 13.7744C8.23438 12.1935 7.5 10.293 7.5 8.07292C7.5 5.85286 8.23438 3.95237 9.70313 2.37142C11.1719 0.790473 12.9375 0 15 0C17.0625 0 18.8281 0.790473 20.2969 2.37142C21.7656 3.95237 22.5 5.85286 22.5 8.07292C22.5 10.293 21.7656 12.1935 20.2969 13.7744C18.8281 15.3554 17.0625 16.1458 15 16.1458ZM0 32.2917V26.6406C0 25.497 0.273437 24.4458 0.820312 23.4871C1.36719 22.5285 2.09375 21.7969 3 21.2923C4.9375 20.2496 6.90625 19.4675 8.90625 18.9461C10.9063 18.4248 12.9375 18.1641 15 18.1641C17.0625 18.1641 19.0937 18.4248 21.0938 18.9461C23.0938 19.4675 25.0625 20.2496 27 21.2923C27.9063 21.7969 28.6328 22.5285 29.1797 23.4871C29.7266 24.4458 30 25.497 30 26.6406V32.2917H0ZM3.75 28.2552H26.25V26.6406C26.25 26.2706 26.1641 25.9342 25.9922 25.6315C25.8203 25.3288 25.5938 25.0933 25.3125 24.9251C23.625 24.0169 21.9219 23.3358 20.2031 22.8817C18.4844 22.4276 16.75 22.2005 15 22.2005C13.25 22.2005 11.5156 22.4276 9.79687 22.8817C8.07812 23.3358 6.375 24.0169 4.6875 24.9251C4.40625 25.0933 4.17969 25.3288 4.00781 25.6315C3.83594 25.9342 3.75 26.2706 3.75 26.6406V28.2552ZM15 12.1094C16.0313 12.1094 16.9141 11.7141 17.6484 10.9237C18.3828 10.1332 18.75 9.18294 18.75 8.07292C18.75 6.96289 18.3828 6.01264 17.6484 5.22217C16.9141 4.4317 16.0313 4.03646 15 4.03646C13.9687 4.03646 13.0859 4.4317 12.3516 5.22217C11.6172 6.01264 11.25 6.96289 11.25 8.07292C11.25 9.18294 11.6172 10.1332 12.3516 10.9237C13.0859 11.7141 13.9687 12.1094 15 12.1094Z" fill="white"/>
</svg>
