<svg width="50" height="50" viewBox="0 0 50 50" fill="none" xmlns="http://www.w3.org/2000/svg">
<path d="M39.5833 16.6667C37.8472 16.6667 36.3715 16.059 35.1562 14.8437C33.9409 13.6285 33.3333 12.1528 33.3333 10.4167C33.3333 8.68055 33.9409 7.20486 35.1562 5.98958C36.3715 4.7743 37.8472 4.16667 39.5833 4.16667C41.3194 4.16667 42.7951 4.7743 44.0104 5.98958C45.2257 7.20486 45.8333 8.68055 45.8333 10.4167C45.8333 12.1528 45.2257 13.6285 44.0104 14.8437C42.7951 16.059 41.3194 16.6667 39.5833 16.6667ZM8.33329 41.6667C7.18746 41.6667 6.20656 41.2587 5.39058 40.4427C4.57461 39.6267 4.16663 38.6458 4.16663 37.5V12.5C4.16663 11.3542 4.57461 10.3733 5.39058 9.55729C6.20656 8.74132 7.18746 8.33333 8.33329 8.33333H29.375C29.2361 9.02778 29.1666 9.72222 29.1666 10.4167C29.1666 11.1111 29.2361 11.8056 29.375 12.5C29.618 13.6111 30.0173 14.6441 30.5729 15.599C31.1284 16.5538 31.8055 17.3958 32.6041 18.125L25 22.9167L8.33329 12.5V16.6667L25 27.0833L35.9895 20.2083C36.5798 20.4167 37.1701 20.5729 37.7604 20.6771C38.3507 20.7812 38.9583 20.8333 39.5833 20.8333C40.6944 20.8333 41.7882 20.6597 42.8645 20.3125C43.9409 19.9653 44.9305 19.4444 45.8333 18.75V37.5C45.8333 38.6458 45.4253 39.6267 44.6093 40.4427C43.7934 41.2587 42.8125 41.6667 41.6666 41.6667H8.33329Z" fill="#FEF7FF"/>
</svg>
