<svg width="50" height="50" viewBox="0 0 50 50" fill="none" xmlns="http://www.w3.org/2000/svg">
<rect width="50" height="50" fill="#D0C2C2"/>
<path d="M39.5832 16.6667C37.8471 16.6667 36.3714 16.0591 35.1561 14.8438C33.9408 13.6286 33.3332 12.1529 33.3332 10.4167C33.3332 8.68064 33.9408 7.20494 35.1561 5.98966C36.3714 4.77439 37.8471 4.16675 39.5832 4.16675C41.3193 4.16675 42.795 4.77439 44.0103 5.98966C45.2255 7.20494 45.8332 8.68064 45.8332 10.4167C45.8332 12.1529 45.2255 13.6286 44.0103 14.8438C42.795 16.0591 41.3193 16.6667 39.5832 16.6667ZM8.33317 41.6667C7.18734 41.6667 6.20643 41.2588 5.39046 40.4428C4.57449 39.6268 4.1665 38.6459 4.1665 37.5001V12.5001C4.1665 11.3542 4.57449 10.3733 5.39046 9.55737C6.20643 8.7414 7.18734 8.33341 8.33317 8.33341H29.3748C29.236 9.02786 29.1665 9.7223 29.1665 10.4167C29.1665 11.1112 29.236 11.8056 29.3748 12.5001C29.6179 13.6112 30.0172 14.6442 30.5728 15.599C31.1283 16.5539 31.8054 17.3959 32.604 18.1251L24.9998 22.9167L8.33317 12.5001V16.6667L24.9998 27.0834L35.9894 20.2084C36.5797 20.4167 37.17 20.573 37.7603 20.6772C38.3505 20.7813 38.9582 20.8334 39.5832 20.8334C40.6943 20.8334 41.788 20.6598 42.8644 20.3126C43.9408 19.9654 44.9304 19.4445 45.8332 18.7501V37.5001C45.8332 38.6459 45.4252 39.6268 44.6092 40.4428C43.7932 41.2588 42.8123 41.6667 41.6665 41.6667H8.33317Z" fill="#212121"/>
</svg>
