<svg width="635" height="73" viewBox="0 0 635 73" fill="none" xmlns="http://www.w3.org/2000/svg">
<g filter="url(#filter0_d_2_48)">
<rect x="4" width="627" height="65" rx="32.5" fill="white" shape-rendering="crispEdges"/>
<g style="mix-blend-mode:plus-darker">
<rect x="4" y="10.5" width="627" height="44" rx="22" fill="white"/>
<path d="M16.9092 30.9463C16.9092 30.0332 17.0807 29.1782 17.4238 28.3813C17.7669 27.5789 18.2428 26.8734 18.8516 26.2646C19.4603 25.6559 20.1631 25.18 20.96 24.8369C21.7624 24.4938 22.6201 24.3223 23.5332 24.3223C24.4463 24.3223 25.3013 24.4938 26.0981 24.8369C26.9006 25.18 27.6061 25.6559 28.2148 26.2646C28.8236 26.8734 29.2995 27.5789 29.6426 28.3813C29.9857 29.1782 30.1572 30.0332 30.1572 30.9463C30.1572 31.7044 30.0355 32.4238 29.792 33.1045C29.554 33.7852 29.222 34.4022 28.7959 34.9556L32.855 39.0396C32.9435 39.1281 33.0099 39.2305 33.0542 39.3467C33.104 39.4629 33.1289 39.5874 33.1289 39.7202C33.1289 39.9028 33.0874 40.0688 33.0044 40.2183C32.9269 40.3677 32.8162 40.4839 32.6724 40.5669C32.5285 40.6554 32.3625 40.6997 32.1743 40.6997C32.0415 40.6997 31.9142 40.6748 31.7925 40.625C31.6763 40.5807 31.5684 40.5116 31.4688 40.4175L27.3848 36.3252C26.8424 36.7126 26.2448 37.0169 25.5918 37.2383C24.9388 37.4596 24.2526 37.5703 23.5332 37.5703C22.6201 37.5703 21.7624 37.3988 20.96 37.0557C20.1631 36.7126 19.4603 36.2367 18.8516 35.6279C18.2428 35.0192 17.7669 34.3164 17.4238 33.5195C17.0807 32.7171 16.9092 31.8594 16.9092 30.9463ZM18.3286 30.9463C18.3286 31.6657 18.4614 32.3408 18.7271 32.9717C18.9982 33.597 19.3717 34.1476 19.8477 34.6235C20.3291 35.0994 20.8825 35.473 21.5078 35.7441C22.1387 36.0153 22.8138 36.1509 23.5332 36.1509C24.2526 36.1509 24.925 36.0153 25.5503 35.7441C26.1812 35.473 26.7345 35.0994 27.2104 34.6235C27.6864 34.1476 28.0599 33.597 28.3311 32.9717C28.6022 32.3408 28.7378 31.6657 28.7378 30.9463C28.7378 30.2269 28.6022 29.5545 28.3311 28.9292C28.0599 28.2983 27.6864 27.745 27.2104 27.269C26.7345 26.7876 26.1812 26.4141 25.5503 26.1484C24.925 25.8773 24.2526 25.7417 23.5332 25.7417C22.8138 25.7417 22.1387 25.8773 21.5078 26.1484C20.8825 26.4141 20.3291 26.7876 19.8477 27.269C19.3717 27.745 18.9982 28.2983 18.7271 28.9292C18.4614 29.5545 18.3286 30.2269 18.3286 30.9463Z" fill="#727272"/>
<path d="M49.4536 38.7822C48.5793 38.7822 47.8156 38.6411 47.1626 38.3589C46.5151 38.0711 46.0005 37.6782 45.6187 37.1802C45.2424 36.6766 45.0238 36.1011 44.9629 35.4536L44.9546 35.3623H46.4487L46.457 35.4536C46.4958 35.8521 46.6479 36.1979 46.9136 36.4912C47.1847 36.779 47.5444 37.0031 47.9927 37.1636C48.4465 37.3241 48.9611 37.4043 49.5366 37.4043C50.0789 37.4043 50.5604 37.3185 50.981 37.147C51.4071 36.9699 51.7419 36.7264 51.9854 36.4165C52.2288 36.1066 52.3506 35.7497 52.3506 35.3457V35.3374C52.3506 34.8394 52.168 34.4215 51.8027 34.084C51.4375 33.7409 50.8426 33.478 50.0181 33.2954L48.6899 33.0049C47.4891 32.7393 46.6147 32.3298 46.0669 31.7764C45.5246 31.2174 45.2534 30.5036 45.2534 29.6348V29.6265C45.259 28.9624 45.4388 28.3758 45.793 27.8667C46.1527 27.3576 46.6479 26.9591 47.2788 26.6714C47.9152 26.3836 48.6457 26.2397 49.4702 26.2397C50.2671 26.2397 50.9727 26.3836 51.5869 26.6714C52.2012 26.9536 52.6882 27.3354 53.0479 27.8169C53.4131 28.2983 53.6151 28.8379 53.6538 29.4355L53.6621 29.5518H52.168L52.1514 29.4438C52.096 29.0897 51.9521 28.777 51.7197 28.5059C51.4873 28.2292 51.1774 28.0106 50.79 27.8501C50.4027 27.6896 49.9489 27.6121 49.4287 27.6177C48.9307 27.6177 48.4824 27.6951 48.084 27.8501C47.6855 28.005 47.3674 28.2292 47.1294 28.5225C46.897 28.8102 46.7808 29.1644 46.7808 29.585V29.5933C46.7808 30.0692 46.9578 30.4704 47.312 30.7969C47.6662 31.1234 48.25 31.3752 49.0635 31.5522L50.3916 31.8511C51.2272 32.0337 51.8996 32.2716 52.4087 32.5649C52.9178 32.8582 53.2886 33.2179 53.521 33.644C53.759 34.0646 53.8779 34.5627 53.8779 35.1382V35.1465C53.8779 35.8936 53.6953 36.5382 53.3301 37.0806C52.9648 37.6229 52.4502 38.0435 51.7861 38.3423C51.1221 38.6356 50.3446 38.7822 49.4536 38.7822ZM59.7579 38.6577C58.9057 38.6577 58.1724 38.4696 57.5582 38.0933C56.9495 37.717 56.4791 37.1857 56.1471 36.4995C55.8206 35.8078 55.6573 34.9943 55.6573 34.0591V34.0508C55.6573 33.1266 55.8206 32.3159 56.1471 31.6187C56.4791 30.9214 56.9467 30.3763 57.5499 29.9834C58.1531 29.5905 58.8586 29.394 59.6666 29.394C60.4801 29.394 61.1773 29.5822 61.7584 29.9585C62.345 30.3348 62.7932 30.8605 63.1031 31.5356C63.4185 32.2052 63.5763 32.9855 63.5763 33.8765V34.4409H56.4044V33.2871H62.8375L62.1236 34.3413V33.7686C62.1236 33.0658 62.0185 32.4875 61.8082 32.0337C61.5979 31.5799 61.3074 31.2424 60.9366 31.021C60.5658 30.7941 60.1397 30.6807 59.6583 30.6807C59.1768 30.6807 58.7452 30.7996 58.3634 31.0376C57.9871 31.27 57.6882 31.6159 57.4669 32.0752C57.2455 32.5345 57.1348 33.099 57.1348 33.7686V34.3413C57.1348 34.9777 57.2428 35.5228 57.4586 35.9766C57.6744 36.4248 57.9815 36.7707 58.38 37.0142C58.7784 37.2521 59.2488 37.3711 59.7911 37.3711C60.1951 37.3711 60.5465 37.3158 60.8453 37.2051C61.1441 37.0944 61.3904 36.9533 61.5841 36.7817C61.7777 36.6102 61.9133 36.4359 61.9908 36.2588L62.024 36.1841H63.4683L63.4517 36.2505C63.3743 36.5549 63.2359 36.8509 63.0367 37.1387C62.843 37.4209 62.5912 37.6782 62.2813 37.9106C61.9714 38.1375 61.6034 38.3201 61.1773 38.4585C60.7568 38.5913 60.2836 38.6577 59.7579 38.6577ZM68.1945 38.6577C67.63 38.6577 67.1209 38.5498 66.6671 38.334C66.2189 38.1182 65.862 37.811 65.5963 37.4126C65.3363 37.0142 65.2062 36.5438 65.2062 36.0015V35.9849C65.2062 35.4536 65.3335 34.9998 65.588 34.6235C65.8426 34.2417 66.2134 33.9429 66.7004 33.7271C67.1873 33.5112 67.7767 33.384 68.4684 33.3452L71.7555 33.146V34.2998L68.6427 34.499C67.9621 34.5378 67.464 34.6789 67.1486 34.9224C66.8387 35.1659 66.6838 35.509 66.6838 35.9517V35.9683C66.6838 36.422 66.8553 36.7762 67.1984 37.0308C67.5415 37.2798 67.9731 37.4043 68.4933 37.4043C68.9858 37.4043 69.423 37.3075 69.8048 37.1138C70.1867 36.9146 70.4855 36.6462 70.7013 36.3086C70.9227 35.971 71.0334 35.5892 71.0334 35.1631V32.374C71.0334 31.8206 70.8646 31.4001 70.527 31.1123C70.195 30.819 69.6942 30.6724 69.0246 30.6724C68.4878 30.6724 68.0478 30.7692 67.7047 30.9629C67.3616 31.151 67.132 31.4194 67.0158 31.7681L67.0075 31.793H65.5631L65.5714 31.7432C65.6489 31.2728 65.8426 30.8633 66.1525 30.5146C66.4679 30.1605 66.8747 29.8866 67.3727 29.6929C67.8708 29.4937 68.438 29.394 69.0744 29.394C69.8048 29.394 70.4219 29.513 70.9254 29.751C71.4346 29.9889 71.8192 30.332 72.0793 30.7803C72.3449 31.223 72.4777 31.7542 72.4777 32.374V38.5H71.0334V37.1802H70.9005C70.7124 37.4956 70.4827 37.764 70.2116 37.9854C69.946 38.2067 69.6444 38.3755 69.3068 38.4917C68.9692 38.6024 68.5985 38.6577 68.1945 38.6577ZM75.0373 38.5V29.5518H76.4817V30.8799H76.6145C76.786 30.4095 77.0766 30.0443 77.4861 29.7842C77.8956 29.5241 78.4019 29.394 79.0051 29.394C79.1435 29.394 79.279 29.4023 79.4119 29.4189C79.5502 29.43 79.6553 29.4411 79.7273 29.4521V30.855C79.5779 30.8273 79.4312 30.8079 79.2873 30.7969C79.149 30.7803 78.9996 30.772 78.8391 30.772C78.3798 30.772 77.9731 30.8633 77.6189 31.0459C77.2647 31.2285 76.9853 31.4831 76.7805 31.8096C76.5813 32.1361 76.4817 32.5179 76.4817 32.9551V38.5H75.0373ZM84.8436 38.6577C84.008 38.6577 83.283 38.4668 82.6688 38.085C82.0545 37.7031 81.5786 37.1636 81.241 36.4663C80.9035 35.769 80.7347 34.9473 80.7347 34.001V33.9844C80.7347 33.0547 80.9007 32.2467 81.2327 31.5605C81.5703 30.8743 82.0462 30.3431 82.6605 29.9668C83.2747 29.585 83.9997 29.394 84.8353 29.394C85.5602 29.394 86.1855 29.5213 86.7113 29.7759C87.237 30.0304 87.6575 30.3735 87.973 30.8052C88.2884 31.2313 88.4904 31.71 88.5789 32.2412L88.5872 32.291H87.1512L87.1429 32.2661C87.0322 31.8234 86.7804 31.4471 86.3875 31.1372C85.9946 30.8273 85.4772 30.6724 84.8353 30.6724C84.2985 30.6724 83.8336 30.8079 83.4407 31.0791C83.0478 31.3503 82.7435 31.7349 82.5277 32.2329C82.3174 32.7254 82.2122 33.3092 82.2122 33.9844V34.001C82.2122 34.6872 82.3201 35.2848 82.536 35.7939C82.7518 36.2975 83.0561 36.6877 83.449 36.9644C83.8419 37.241 84.304 37.3794 84.8353 37.3794C85.4385 37.3794 85.931 37.2493 86.3128 36.9893C86.6946 36.7292 86.9686 36.3501 87.1346 35.8521L87.1512 35.8022L88.5789 35.7939L88.5623 35.8853C88.4406 36.422 88.2248 36.9007 87.9149 37.3213C87.605 37.7363 87.1955 38.0628 86.6863 38.3008C86.1772 38.5387 85.563 38.6577 84.8436 38.6577ZM90.6986 38.5V25.999H92.143V30.8965H92.2758C92.5027 30.4206 92.8292 30.0526 93.2553 29.7925C93.6814 29.5269 94.2237 29.394 94.8822 29.394C95.5518 29.394 96.119 29.5241 96.5839 29.7842C97.0487 30.0387 97.4029 30.4123 97.6464 30.9048C97.8899 31.3973 98.0116 31.9977 98.0116 32.7061V38.5H96.5673V33.0547C96.5673 32.2467 96.3957 31.6491 96.0526 31.2617C95.7151 30.8688 95.1894 30.6724 94.4755 30.6724C93.9996 30.6724 93.5873 30.7747 93.2387 30.9795C92.89 31.1842 92.6189 31.4748 92.4252 31.8511C92.237 32.2274 92.143 32.6784 92.143 33.2041V38.5H90.6986Z" fill="#727272"/>
<path d="M611.467 34.6816C610.913 34.6816 610.429 34.5544 610.014 34.2998C609.599 34.0452 609.275 33.6938 609.043 33.2456C608.811 32.7918 608.694 32.2689 608.694 31.6768V26.1235C608.694 25.5314 608.811 25.0112 609.043 24.563C609.275 24.1092 609.599 23.755 610.014 23.5005C610.429 23.2459 610.913 23.1187 611.467 23.1187C612.015 23.1187 612.496 23.2459 612.911 23.5005C613.332 23.755 613.655 24.1092 613.882 24.563C614.115 25.0112 614.231 25.5314 614.231 26.1235V31.6768C614.231 32.2689 614.115 32.7918 613.882 33.2456C613.655 33.6938 613.332 34.0452 612.911 34.2998C612.496 34.5544 612.015 34.6816 611.467 34.6816ZM611.467 37.6284C610.581 37.6284 609.773 37.4901 609.043 37.2134C608.318 36.9312 607.693 36.5327 607.167 36.0181C606.641 35.4979 606.235 34.8836 605.947 34.1753C605.665 33.4614 605.523 32.6729 605.523 31.8096V30.1245C605.523 29.953 605.584 29.8063 605.706 29.6846C605.828 29.5628 605.974 29.502 606.146 29.502C606.323 29.502 606.472 29.5628 606.594 29.6846C606.716 29.8063 606.777 29.953 606.777 30.1245V31.7598C606.777 32.7005 606.971 33.5251 607.358 34.2334C607.745 34.9417 608.29 35.4924 608.993 35.8853C609.696 36.2726 610.521 36.4663 611.467 36.4663C612.413 36.4663 613.235 36.2726 613.932 35.8853C614.635 35.4924 615.18 34.9417 615.567 34.2334C615.955 33.5251 616.148 32.7005 616.148 31.7598V30.1245C616.148 29.953 616.209 29.8063 616.331 29.6846C616.453 29.5628 616.602 29.502 616.779 29.502C616.951 29.502 617.097 29.5628 617.219 29.6846C617.341 29.8063 617.402 29.953 617.402 30.1245V31.8096C617.402 32.6729 617.258 33.4614 616.97 34.1753C616.688 34.8836 616.284 35.4979 615.758 36.0181C615.233 36.5327 614.604 36.9312 613.874 37.2134C613.149 37.4901 612.347 37.6284 611.467 37.6284ZM607.756 40.7993C607.579 40.7993 607.43 40.7384 607.308 40.6167C607.186 40.495 607.125 40.3483 607.125 40.1768C607.125 39.9997 607.186 39.8503 607.308 39.7285C607.43 39.6068 607.579 39.5459 607.756 39.5459H615.169C615.346 39.5459 615.495 39.6068 615.617 39.7285C615.739 39.8503 615.8 39.9997 615.8 40.1768C615.8 40.3483 615.739 40.495 615.617 40.6167C615.495 40.7384 615.346 40.7993 615.169 40.7993H607.756ZM611.467 40.5254C611.29 40.5254 611.14 40.4645 611.019 40.3428C610.897 40.221 610.836 40.0716 610.836 39.8945V37.3462C610.836 37.1691 610.897 37.0197 611.019 36.8979C611.14 36.7762 611.29 36.7153 611.467 36.7153C611.638 36.7153 611.785 36.7762 611.907 36.8979C612.028 37.0197 612.089 37.1691 612.089 37.3462V39.8945C612.089 40.0716 612.028 40.221 611.907 40.3428C611.785 40.4645 611.638 40.5254 611.467 40.5254Z" fill="#727272"/>
</g>
</g>
<defs>
<filter id="filter0_d_2_48" x="0" y="0" width="635" height="73" filterUnits="userSpaceOnUse" color-interpolation-filters="sRGB">
<feFlood flood-opacity="0" result="BackgroundImageFix"/>
<feColorMatrix in="SourceAlpha" type="matrix" values="0 0 0 0 0 0 0 0 0 0 0 0 0 0 0 0 0 0 127 0" result="hardAlpha"/>
<feOffset dy="4"/>
<feGaussianBlur stdDeviation="2"/>
<feComposite in2="hardAlpha" operator="out"/>
<feColorMatrix type="matrix" values="0 0 0 0 0 0 0 0 0 0 0 0 0 0 0 0 0 0 0.25 0"/>
<feBlend mode="normal" in2="BackgroundImageFix" result="effect1_dropShadow_2_48"/>
<feBlend mode="normal" in="SourceGraphic" in2="effect1_dropShadow_2_48" result="shape"/>
</filter>
</defs>
</svg>
