<svg width="40" height="40" viewBox="0 0 40 40" fill="none" xmlns="http://www.w3.org/2000/svg">
<rect x="0.5" y="0.5" width="39" height="39" rx="11.5" fill="white"/>
<rect x="0.5" y="0.5" width="39" height="39" rx="11.5" stroke="#E2E8F0"/>
<path d="M19.8355 25.154C19.1072 25.1487 18.4729 25.019 17.9324 24.7646C17.3919 24.5103 16.9697 24.1505 16.6656 23.6853C16.3616 23.2201 16.2003 22.6684 16.182 22.0302H17.6594C17.7568 22.6436 18.0047 23.1076 18.4029 23.4222C18.8012 23.7367 19.2919 23.894 19.8749 23.894C20.3515 23.894 20.7644 23.8209 21.1137 23.6748C21.463 23.5287 21.7329 23.3253 21.9235 23.0645C22.1141 22.8038 22.2094 22.5025 22.2094 22.1606C22.2094 21.7844 22.1048 21.4657 21.8957 21.2045C21.6866 20.9433 21.4016 20.7436 21.0406 20.6053C20.6797 20.4671 20.2745 20.3949 19.825 20.3888L18.9006 20.3643V19.1226L19.7668 19.092C20.19 19.0818 20.5658 19.0012 20.8941 18.8503C21.2223 18.6993 21.4805 18.5004 21.6684 18.2533C21.8564 18.0063 21.9504 17.7331 21.9504 17.4339C21.9504 17.1635 21.8671 16.9159 21.7006 16.691C21.534 16.4661 21.2958 16.2873 20.9859 16.1544C20.676 16.0216 20.3042 15.9551 19.8705 15.9551C19.5202 15.9551 19.1874 16.0212 18.8719 16.1533C18.5565 16.2854 18.297 16.4922 18.0934 16.7735C17.8898 17.0548 17.7799 17.421 17.7635 17.8723H16.2961C16.2961 17.1991 16.4577 16.6294 16.7807 16.1632C17.1037 15.6969 17.5374 15.3428 18.0818 15.1009C18.6262 14.859 19.2284 14.738 19.8885 14.738C20.6045 14.738 21.2381 14.8384 21.7892 15.0392C22.3403 15.24 22.773 15.5364 23.0872 15.9284C23.4015 16.3204 23.5586 16.8039 23.5586 17.3787C23.5586 17.8787 23.4033 18.3272 23.0927 18.7243C22.7821 19.1214 22.3001 19.4335 21.6468 19.6607C22.0723 19.7763 22.4486 19.9475 22.7755 20.1746C23.1025 20.4017 23.3584 20.683 23.5433 21.0187C23.7283 21.3545 23.8207 21.7435 23.8207 22.186C23.8207 22.6556 23.7204 23.0754 23.5197 23.4453C23.319 23.8153 23.0382 24.1281 22.6773 24.3838C22.3164 24.6394 21.894 24.8324 21.4101 24.9626C20.9262 25.0928 20.4014 25.1566 19.8355 25.154Z" fill="#0F172A"/>
</svg>
