<svg width="88" height="42" viewBox="0 0 88 42" fill="none" xmlns="http://www.w3.org/2000/svg">
<rect x="0.5" y="0.5" width="86.19" height="41" rx="11.5" fill="white"/>
<rect x="0.5" y="0.5" width="86.19" height="41" rx="11.5" stroke="#E2E8F0"/>
<path d="M21.0833 24.5V23.3333H23.4167V24.5H21.0833ZM18.75 21.5833V20.4167H25.75V21.5833H18.75ZM17 18.6667V17.5H27.5V18.6667H17Z" fill="#0F172A"/>
<path d="M36.7857 26V15.878H43.2528L43.2467 17.1669H38.3156V20.2941H42.7051V21.5664H38.3156V26H36.7857ZM44.9424 26V18.762H46.3866V26H44.9424ZM44.907 17.3629V15.8859H46.4142V17.3629H44.907ZM50.4786 26.0989C50.0501 26.0989 49.7058 26.0428 49.4456 25.9307C49.1855 25.8185 48.9884 25.6678 48.8546 25.4785C48.7207 25.2892 48.6313 25.0746 48.5864 24.8347C48.5415 24.5948 48.519 24.3471 48.519 24.0916V15.598H49.9929V23.9324C49.9929 24.2704 50.0602 24.5283 50.1948 24.7059C50.3294 24.8835 50.5338 24.9835 50.808 25.006L51.1847 25.0183V25.9694C51.0686 26.0064 50.9485 26.0373 50.8244 26.0619C50.7003 26.0866 50.585 26.0989 50.4786 26.0989ZM55.1091 26.049C54.5715 26.049 54.1553 25.9768 53.8604 25.8324C53.5656 25.6881 53.3604 25.4795 53.2451 25.2068C53.1297 24.9341 53.0721 24.6041 53.0721 24.2167V19.8383H51.8961V18.762H53.1149L53.4842 16.634H54.5714V18.7559H56.1967V19.8383H54.5714L54.5775 24.1616C54.5775 24.3976 54.6026 24.5705 54.6528 24.6803C54.7029 24.7901 54.7876 24.8607 54.9067 24.8922C55.0259 24.9237 55.1881 24.9395 55.3934 24.9395H56.2361V25.9116C56.1433 25.9478 56.0047 25.9797 55.8202 26.0074C55.6357 26.0351 55.3987 26.049 55.1091 26.049ZM60.8097 26.14C60.124 26.14 59.5202 25.9924 58.9984 25.6973C58.4766 25.4021 58.0696 24.9792 57.7772 24.4285C57.4848 23.8778 57.3386 23.2204 57.3386 22.4562C57.3386 21.7052 57.4713 21.0413 57.7367 20.4645C58.0021 19.8878 58.3867 19.4365 58.8904 19.1107C59.3941 18.7849 60.0018 18.622 60.7134 18.622C61.4102 18.622 61.998 18.7709 62.4768 19.0687C62.9556 19.3665 63.3189 19.7858 63.5668 20.3265C63.8147 20.8672 63.9387 21.5025 63.9387 22.2322V22.7284H58.8431C58.8411 23.1621 58.9117 23.5507 59.0549 23.8941C59.1981 24.2375 59.4138 24.509 59.7022 24.7085C59.9905 24.908 60.3494 25.0078 60.7791 25.0078C61.2101 25.0078 61.5833 24.9099 61.8984 24.7142C62.2136 24.5185 62.4192 24.2255 62.5155 23.8353H63.9037C63.8185 24.3325 63.6206 24.7531 63.31 25.0968C62.9994 25.4405 62.6247 25.7003 62.1861 25.8762C61.7474 26.0521 61.2886 26.14 60.8097 26.14ZM58.8449 21.7615H62.5124C62.5124 21.38 62.4465 21.035 62.3147 20.7264C62.1829 20.4178 61.9835 20.1735 61.7166 19.9936C61.4497 19.8136 61.1127 19.7236 60.7056 19.7236C60.2905 19.7236 59.945 19.8234 59.6689 20.0231C59.3928 20.2227 59.1858 20.4788 59.0479 20.7913C58.9099 21.1039 58.8422 21.4273 58.8449 21.7615ZM65.648 26V18.762H67.083V20.2442C67.2029 19.891 67.3719 19.5943 67.5901 19.3539C67.8082 19.1136 68.0612 18.9315 68.3491 18.8077C68.637 18.6839 68.9432 18.622 69.2679 18.622C69.3635 18.622 69.4561 18.6279 69.5457 18.6397C69.6352 18.6515 69.7049 18.6719 69.7548 18.7007V20.1428C69.6936 20.1145 69.6151 20.0951 69.5194 20.0846C69.4238 20.0741 69.342 20.0678 69.274 20.0657C68.9543 20.0433 68.6643 20.0591 68.4038 20.1132C68.1434 20.1673 67.919 20.2606 67.7307 20.393C67.5424 20.5254 67.398 20.6959 67.2974 20.9044C67.1967 21.113 67.1464 21.3602 67.1464 21.646V26H65.648Z" fill="#0F172A"/>
</svg>
