<svg width="40" height="40" viewBox="0 0 40 40" fill="none" xmlns="http://www.w3.org/2000/svg">
<rect x="0.5" y="0.5" width="39" height="39" rx="11.5" fill="white"/>
<rect x="0.5" y="0.5" width="39" height="39" rx="11.5" stroke="#E2E8F0"/>
<path d="M16.6024 25V24.1504V23.7076C16.6024 23.1911 16.6988 22.744 16.8918 22.3665C17.0847 21.9889 17.3401 21.6597 17.6581 21.3788C17.976 21.0979 18.3249 20.8473 18.7048 20.627C19.0847 20.4066 19.4639 20.1959 19.8425 19.9948C20.2211 19.7937 20.5693 19.5849 20.8873 19.3685C21.2052 19.1521 21.4606 18.9077 21.6535 18.6355C21.8465 18.3632 21.9429 18.0417 21.9429 17.671C21.9429 17.1839 21.7723 16.7887 21.4311 16.4854C21.0898 16.182 20.6288 16.0304 20.0481 16.0304C19.4275 16.0304 18.9227 16.206 18.5339 16.5573C18.1451 16.9087 17.9207 17.3919 17.8606 18.007H16.3933C16.4038 17.4068 16.5491 16.8594 16.8292 16.3651C17.1094 15.8707 17.5224 15.4759 18.0684 15.1807C18.6144 14.8856 19.2917 14.738 20.1002 14.738C20.7996 14.738 21.4055 14.8602 21.9178 15.1046C22.4301 15.349 22.8257 15.6911 23.1047 16.1308C23.3837 16.5705 23.5232 17.0824 23.5232 17.6666C23.5232 18.1838 23.4283 18.6284 23.2384 19.0006C23.0485 19.3727 22.7973 19.694 22.4848 19.9644C22.1723 20.2347 21.8298 20.4749 21.4573 20.6847C21.0849 20.8946 20.7117 21.0938 20.338 21.2823C19.9642 21.4709 19.6211 21.6683 19.3085 21.8745C18.996 22.0807 18.7448 22.3154 18.5549 22.5784C18.3651 22.8415 18.2701 23.1567 18.2701 23.5239V23.6971H23.5595V25H16.6024Z" fill="#0F172A"/>
</svg>
