<svg width="31" height="31" viewBox="0 0 31 31" fill="none" xmlns="http://www.w3.org/2000/svg">
<path d="M9.66667 21.3333H10.8542L19 13.1875L17.8125 12L9.66667 20.1458V21.3333ZM8 23V19.4583L19 8.47917C19.1667 8.32639 19.3507 8.20833 19.5521 8.125C19.7535 8.04167 19.9653 8 20.1875 8C20.4097 8 20.625 8.04167 20.8333 8.125C21.0417 8.20833 21.2222 8.33333 21.375 8.5L22.5208 9.66667C22.6875 9.81944 22.809 10 22.8854 10.2083C22.9618 10.4167 23 10.625 23 10.8333C23 11.0556 22.9618 11.2674 22.8854 11.4688C22.809 11.6701 22.6875 11.8542 22.5208 12.0208L11.5417 23H8ZM21.3333 10.8333L20.1667 9.66667L21.3333 10.8333ZM18.3958 12.6042L17.8125 12L19 13.1875L18.3958 12.6042Z" fill="#475569"/>
</svg>
