<svg width="20" height="30" viewBox="0 0 20 30" fill="none" xmlns="http://www.w3.org/2000/svg">
<path d="M9.66667 21.3333C9.20833 21.3333 8.81597 21.1701 8.48958 20.8438C8.16319 20.5174 8 20.125 8 19.6667C8 19.2083 8.16319 18.816 8.48958 18.4896C8.81597 18.1632 9.20833 18 9.66667 18C10.125 18 10.5174 18.1632 10.8438 18.4896C11.1701 18.816 11.3333 19.2083 11.3333 19.6667C11.3333 20.125 11.1701 20.5174 10.8438 20.8438C10.5174 21.1701 10.125 21.3333 9.66667 21.3333ZM9.66667 16.3333C9.20833 16.3333 8.81597 16.1701 8.48958 15.8438C8.16319 15.5174 8 15.125 8 14.6667C8 14.2083 8.16319 13.816 8.48958 13.4896C8.81597 13.1632 9.20833 13 9.66667 13C10.125 13 10.5174 13.1632 10.8438 13.4896C11.1701 13.816 11.3333 14.2083 11.3333 14.6667C11.3333 15.125 11.1701 15.5174 10.8438 15.8438C10.5174 16.1701 10.125 16.3333 9.66667 16.3333ZM9.66667 11.3333C9.20833 11.3333 8.81597 11.1701 8.48958 10.8438C8.16319 10.5174 8 10.125 8 9.66667C8 9.20833 8.16319 8.81597 8.48958 8.48958C8.81597 8.16319 9.20833 8 9.66667 8C10.125 8 10.5174 8.16319 10.8438 8.48958C11.1701 8.81597 11.3333 9.20833 11.3333 9.66667C11.3333 10.125 11.1701 10.5174 10.8438 10.8438C10.5174 11.1701 10.125 11.3333 9.66667 11.3333Z" fill="#475569"/>
</svg>
