<svg width="38" height="38" viewBox="0 0 38 38" fill="none" xmlns="http://www.w3.org/2000/svg">
<rect x="0.5" y="0.5" width="37" height="37" rx="11.5" fill="white"/>
<rect x="0.5" y="0.5" width="37" height="37" rx="11.5" stroke="#E2E8F0"/>
<path d="M19 23L14 18L15.4 16.55L18 19.15V11H20V19.15L22.6 16.55L24 18L19 23ZM13 27C12.45 27 11.9792 26.8042 11.5875 26.4125C11.1958 26.0208 11 25.55 11 25V22H13V25H25V22H27V25C27 25.55 26.8042 26.0208 26.4125 26.4125C26.0208 26.8042 25.55 27 25 27H13Z" fill="#475569"/>
</svg>
