<svg width="192" height="42" viewBox="0 0 192 42" fill="none" xmlns="http://www.w3.org/2000/svg">
<rect x="0.5" y="0.5" width="191" height="41" rx="11.5" fill="white"/>
<rect x="0.5" y="0.5" width="191" height="41" rx="11.5" stroke="#E2E8F0"/>
<path d="M168.3 18.9004L172.5 23.1004L176.7 18.9004" stroke="#6B7280" stroke-width="1.575" stroke-linecap="round" stroke-linejoin="round"/>
<path d="M17.525 26L21.1759 15.878H22.8319L26.4789 26H24.9643L24.0127 23.347H20.0017L19.044 26H17.525ZM20.3749 21.9916H23.6211L22.0011 17.3362L20.3749 21.9916ZM29.9776 26.0989C29.5491 26.0989 29.2048 26.0428 28.9446 25.9307C28.6845 25.8185 28.4874 25.6678 28.3536 25.4785C28.2197 25.2892 28.1303 25.0746 28.0854 24.8347C28.0405 24.5948 28.018 24.3471 28.018 24.0916V15.598H29.4919V23.9324C29.4919 24.2704 29.5592 24.5283 29.6938 24.7059C29.8284 24.8835 30.0328 24.9835 30.307 25.006L30.6837 25.0183V25.9694C30.5676 26.0064 30.4475 26.0373 30.3234 26.0619C30.1993 26.0866 30.084 26.0989 29.9776 26.0989ZM34.1076 26.0989C33.6791 26.0989 33.3348 26.0428 33.0746 25.9307C32.8145 25.8185 32.6174 25.6678 32.4836 25.4785C32.3497 25.2892 32.2603 25.0746 32.2154 24.8347C32.1705 24.5948 32.148 24.3471 32.148 24.0916V15.598H33.6219V23.9324C33.6219 24.2704 33.6892 24.5283 33.8238 24.7059C33.9584 24.8835 34.1628 24.9835 34.437 25.006L34.8137 25.0183V25.9694C34.6976 26.0064 34.5775 26.0373 34.4534 26.0619C34.3293 26.0866 34.214 26.0989 34.1076 26.0989ZM43.9172 26.14C42.9996 26.14 42.2141 25.9293 41.5606 25.508C40.9071 25.0867 40.4066 24.4846 40.0591 23.7016C39.7116 22.9186 39.5378 21.9823 39.5378 20.8926C39.5378 19.803 39.7106 18.8744 40.056 18.1068C40.4015 17.3393 40.901 16.7526 41.5545 16.3468C42.2079 15.9409 42.9955 15.738 43.9172 15.738C44.6437 15.738 45.2889 15.8876 45.8527 16.1869C46.4165 16.4861 46.8701 16.8877 47.2135 17.3915C47.557 17.8954 47.7608 18.4523 47.8249 19.0621H46.2351C46.1627 18.6786 46.027 18.3324 45.828 18.0237C45.6289 17.715 45.367 17.4699 45.0422 17.2885C44.7174 17.1071 44.3292 17.0164 43.8774 17.0164C43.3031 17.0164 42.816 17.1516 42.4161 17.4222C42.0163 17.6927 41.7123 18.1149 41.5042 18.6889C41.2961 19.2629 41.192 20.0036 41.192 20.911C41.192 22.2772 41.4233 23.2771 41.8859 23.9109C42.3485 24.5447 43.0123 24.8616 43.8774 24.8616C44.3292 24.8616 44.7174 24.7639 45.0422 24.5685C45.367 24.3731 45.6289 24.1134 45.828 23.7893C46.027 23.4653 46.1627 23.1115 46.2351 22.7279H47.8249C47.7707 23.1719 47.6548 23.5986 47.4773 24.0083C47.2999 24.4179 47.0542 24.7829 46.7404 25.1033C46.4265 25.4237 46.0361 25.6766 45.569 25.862C45.1019 26.0473 44.5513 26.14 43.9172 26.14ZM51.5161 26.14C51.0503 26.14 50.6365 26.0559 50.2745 25.8878C49.9125 25.7196 49.6289 25.4772 49.4236 25.1604C49.2182 24.8437 49.1156 24.4606 49.1156 24.0111C49.1156 23.2114 49.3995 22.6122 49.9674 22.2137C50.5353 21.8151 51.4444 21.604 52.6948 21.5804L53.8808 21.5489V21.0204C53.8808 20.6059 53.7576 20.2801 53.5111 20.0428C53.2647 19.8055 52.883 19.6889 52.3662 19.693C51.9826 19.695 51.6395 19.7847 51.3368 19.9618C51.034 20.139 50.8358 20.43 50.7422 20.8349H49.4468C49.4748 20.3522 49.6129 19.9465 49.8613 19.6177C50.1096 19.289 50.4537 19.0409 50.8936 18.8733C51.3334 18.7058 51.8479 18.622 52.4371 18.622C53.0959 18.622 53.6384 18.7118 54.0646 18.8913C54.4907 19.0708 54.807 19.333 55.0135 19.6779C55.22 20.0228 55.3233 20.4432 55.3233 20.939V26H54.0536L53.9377 24.6709C53.6679 25.2239 53.3258 25.607 52.9113 25.8202C52.4969 26.0334 52.0318 26.14 51.5161 26.14ZM51.9869 25.0952C52.2147 25.0952 52.4402 25.0542 52.6635 24.9721C52.8867 24.89 53.0896 24.7779 53.272 24.6359C53.4545 24.4938 53.601 24.3347 53.7117 24.1586C53.8224 23.9824 53.8788 23.8005 53.8808 23.613V22.4195L52.8995 22.4353C52.4031 22.4431 51.9805 22.4956 51.6318 22.5925C51.2832 22.6895 51.0167 22.8407 50.8325 23.0462C50.6483 23.2517 50.5563 23.5246 50.5563 23.865C50.5563 24.2512 50.6911 24.5527 50.9607 24.7697C51.2304 24.9867 51.5724 25.0952 51.9869 25.0952ZM59.7381 26.049C59.2005 26.049 58.7843 25.9768 58.4894 25.8324C58.1946 25.6881 57.9894 25.4795 57.8741 25.2068C57.7587 24.9341 57.7011 24.6041 57.7011 24.2167V19.8383H56.5251V18.762H57.7439L58.1132 16.634H59.2004V18.7559H60.8257V19.8383H59.2004L59.2065 24.1616C59.2065 24.3976 59.2316 24.5705 59.2818 24.6803C59.3319 24.7901 59.4166 24.8607 59.5357 24.8922C59.6549 24.9237 59.8171 24.9395 60.0224 24.9395H60.8651V25.9116C60.7723 25.9478 60.6337 25.9797 60.4492 26.0074C60.2647 26.0351 60.0277 26.049 59.7381 26.049ZM65.4387 26.14C64.753 26.14 64.1492 25.9924 63.6274 25.6973C63.1056 25.4021 62.6986 24.9792 62.4062 24.4285C62.1138 23.8778 61.9676 23.2204 61.9676 22.4562C61.9676 21.7052 62.1003 21.0413 62.3657 20.4645C62.6311 19.8878 63.0157 19.4365 63.5194 19.1107C64.0231 18.7849 64.6308 18.622 65.3424 18.622C66.0392 18.622 66.627 18.7709 67.1058 19.0687C67.5846 19.3665 67.9479 19.7858 68.1958 20.3265C68.4437 20.8672 68.5677 21.5025 68.5677 22.2322V22.7284H63.4721C63.4701 23.1621 63.5407 23.5507 63.6839 23.8941C63.8271 24.2375 64.0428 24.509 64.3312 24.7085C64.6195 24.908 64.9784 25.0078 65.4081 25.0078C65.8391 25.0078 66.2123 24.9099 66.5274 24.7142C66.8426 24.5185 67.0483 24.2255 67.1445 23.8353H68.5327C68.4475 24.3325 68.2496 24.7531 67.939 25.0968C67.6284 25.4405 67.2537 25.7003 66.8151 25.8762C66.3764 26.0521 65.9176 26.14 65.4387 26.14ZM63.4739 21.7615H67.1414C67.1414 21.38 67.0755 21.035 66.9437 20.7264C66.8119 20.4178 66.6125 20.1735 66.3456 19.9936C66.0788 19.8136 65.7417 19.7236 65.3346 19.7236C64.9195 19.7236 64.574 19.8234 64.2979 20.0231C64.0218 20.2227 63.8148 20.4788 63.6769 20.7913C63.5389 21.1039 63.4713 21.4273 63.4739 21.7615ZM73.3596 28.394C72.181 28.394 71.2699 28.2299 70.6263 27.9016C69.9828 27.5733 69.661 27.1139 69.661 26.5232C69.661 26.2663 69.7228 26.0482 69.8463 25.869C69.9698 25.6897 70.1167 25.5417 70.2868 25.4249C70.457 25.3081 70.6148 25.2166 70.7602 25.1504C70.9056 25.0842 70.9989 25.0369 71.04 25.0086C70.9595 24.9608 70.8573 24.9004 70.7333 24.8275C70.6094 24.7546 70.4985 24.6563 70.4008 24.5326C70.3031 24.409 70.2543 24.2482 70.2543 24.0505C70.2543 23.8137 70.3658 23.5962 70.5889 23.3982C70.8121 23.2001 71.1456 23.0559 71.5895 22.9655C71.1508 22.7479 70.811 22.4574 70.5701 22.094C70.3292 21.7306 70.2088 21.3444 70.2088 20.9355C70.2088 20.4633 70.3417 20.0559 70.6075 19.7133C70.8734 19.3708 71.2477 19.1079 71.7306 18.9247C72.2134 18.7416 72.7813 18.65 73.434 18.65C73.9126 18.65 74.3119 18.704 74.6319 18.8119C74.9518 18.9198 75.2488 19.07 75.5226 19.2625C75.6081 19.2269 75.7335 19.1756 75.8989 19.1085C76.0643 19.0414 76.2456 18.9678 76.4429 18.8878C76.6402 18.8077 76.8282 18.7306 77.0068 18.6563C77.1855 18.5821 77.3318 18.5214 77.4459 18.4741L77.4398 19.7761L76.1763 20.0071C76.2436 20.1492 76.2968 20.3043 76.3357 20.4724C76.3747 20.6406 76.3941 20.7929 76.3941 20.9294C76.3941 21.3532 76.2802 21.7408 76.0522 22.0922C75.8243 22.4437 75.4811 22.7242 75.0228 22.9338C74.5644 23.1433 73.992 23.2481 73.3054 23.2481C73.2406 23.2481 73.1568 23.2466 73.0538 23.2435C72.9509 23.2405 72.865 23.2359 72.7961 23.2298C72.3613 23.2438 72.0624 23.2937 71.8995 23.3796C71.7366 23.4655 71.6551 23.5599 71.6551 23.6629C71.6551 23.7924 71.7601 23.8809 71.9701 23.9284C72.1801 23.976 72.5255 24.0167 73.0061 24.0505C73.1794 24.0604 73.3998 24.0724 73.6674 24.0864C73.935 24.1004 74.232 24.119 74.5584 24.1424C75.3517 24.1914 75.9572 24.3912 76.3749 24.7418C76.7925 25.0923 77.0014 25.5555 77.0014 26.1313C77.0014 26.7945 76.7007 27.3374 76.0993 27.7601C75.4978 28.1827 74.5846 28.394 73.3596 28.394ZM73.6143 27.4779C74.2556 27.4779 74.7388 27.3853 75.0639 27.2003C75.389 27.0152 75.5515 26.7405 75.5515 26.3763C75.5515 26.1068 75.4466 25.8854 75.2367 25.7123C75.0269 25.5392 74.7124 25.4394 74.2933 25.4129L72.363 25.2895C72.1714 25.2781 71.9816 25.319 71.7938 25.412C71.606 25.505 71.4503 25.6341 71.3268 25.7992C71.2033 25.9643 71.1415 26.1482 71.1415 26.3509C71.1415 26.7134 71.3429 26.9919 71.7457 27.1863C72.1485 27.3807 72.7713 27.4779 73.6143 27.4779ZM73.35 22.332C73.8345 22.332 74.2249 22.2148 74.5214 21.9803C74.8179 21.7458 74.9661 21.4065 74.9661 20.9626C74.9661 20.5035 74.8179 20.1489 74.5214 19.8986C74.2249 19.6484 73.8345 19.5233 73.35 19.5233C72.8597 19.5233 72.4638 19.649 72.1624 19.9006C71.861 20.1522 71.7103 20.5062 71.7103 20.9626C71.7103 21.3908 71.8544 21.7261 72.1427 21.9684C72.431 22.2108 72.8335 22.332 73.35 22.332ZM81.7036 26.14C81.0252 26.14 80.4335 25.9945 79.9285 25.7034C79.4234 25.4123 79.0316 24.9892 78.7529 24.4342C78.4742 23.8791 78.3349 23.2058 78.3349 22.4142C78.3349 21.6562 78.4674 20.9927 78.7326 20.4236C78.9977 19.8546 79.3818 19.4121 79.8849 19.096C80.3881 18.78 80.9963 18.622 81.7097 18.622C82.3896 18.622 82.9794 18.7707 83.4792 19.0683C83.979 19.3657 84.3665 19.7969 84.6419 20.3617C84.9172 20.9265 85.0549 21.6107 85.0549 22.4142C85.0549 23.1487 84.926 23.7954 84.6683 24.3543C84.4107 24.9133 84.0334 25.3507 83.5365 25.6664C83.0397 25.9821 82.4287 26.14 81.7036 26.14ZM81.7097 24.985C82.1225 24.985 82.4673 24.876 82.7442 24.658C83.0212 24.4399 83.2294 24.1348 83.369 23.7425C83.5085 23.3502 83.5783 22.8932 83.5783 22.3714C83.5783 21.8922 83.5164 21.4557 83.3926 21.0619C83.2688 20.6682 83.0697 20.3549 82.7954 20.122C82.5211 19.8891 82.1592 19.7726 81.7097 19.7726C81.2924 19.7726 80.9432 19.8786 80.6624 20.0905C80.3815 20.3024 80.1701 20.6032 80.0282 20.993C79.8863 21.3828 79.8154 21.8423 79.8154 22.3714C79.8154 22.8459 79.8784 23.2813 80.0046 23.6775C80.1307 24.0738 80.3329 24.3907 80.6112 24.6284C80.8894 24.8661 81.2556 24.985 81.7097 24.985ZM86.685 26V18.762H88.12V20.2442C88.2399 19.891 88.4089 19.5943 88.6271 19.3539C88.8452 19.1136 89.0982 18.9315 89.3861 18.8077C89.674 18.6839 89.9802 18.622 90.3049 18.622C90.4005 18.622 90.4931 18.6279 90.5827 18.6397C90.6722 18.6515 90.7419 18.6719 90.7918 18.7007V20.1428C90.7306 20.1145 90.6521 20.0951 90.5564 20.0846C90.4608 20.0741 90.379 20.0678 90.311 20.0657C89.9913 20.0433 89.7013 20.0591 89.4408 20.1132C89.1804 20.1673 88.956 20.2606 88.7677 20.393C88.5794 20.5254 88.435 20.6959 88.3344 20.9044C88.2337 21.113 88.1834 21.3602 88.1834 21.646V26H86.685ZM92.2714 26V18.762H93.7156V26H92.2714ZM92.236 17.3629V15.8859H93.7432V17.3629H92.236ZM98.9057 26.14C98.22 26.14 97.6162 25.9924 97.0944 25.6973C96.5726 25.4021 96.1655 24.9792 95.8732 24.4285C95.5808 23.8778 95.4346 23.2204 95.4346 22.4562C95.4346 21.7052 95.5673 21.0413 95.8327 20.4645C96.0981 19.8878 96.4827 19.4365 96.9864 19.1107C97.4901 18.7849 98.0978 18.622 98.8094 18.622C99.5062 18.622 100.094 18.7709 100.573 19.0687C101.052 19.3665 101.415 19.7858 101.663 20.3265C101.911 20.8672 102.035 21.5025 102.035 22.2322V22.7284H96.9391C96.9371 23.1621 97.0077 23.5507 97.1509 23.8941C97.2941 24.2375 97.5098 24.509 97.7982 24.7085C98.0865 24.908 98.4454 25.0078 98.8751 25.0078C99.3061 25.0078 99.6793 24.9099 99.9944 24.7142C100.31 24.5185 100.515 24.2255 100.611 23.8353H102C101.915 24.3325 101.717 24.7531 101.406 25.0968C101.095 25.4405 100.721 25.7003 100.282 25.8762C99.8434 26.0521 99.3846 26.14 98.9057 26.14ZM96.9409 21.7615H100.608C100.608 21.38 100.543 21.035 100.411 20.7264C100.279 20.4178 100.079 20.1735 99.8126 19.9936C99.5457 19.8136 99.2087 19.7236 98.8016 19.7236C98.3865 19.7236 98.041 19.8234 97.7649 20.0231C97.4888 20.2227 97.2818 20.4788 97.1439 20.7913C97.0059 21.1039 96.9382 21.4273 96.9409 21.7615ZM106.394 26.14C105.89 26.14 105.418 26.0602 104.977 25.9007C104.536 25.7411 104.168 25.4921 103.873 25.1534C103.578 24.8148 103.392 24.3795 103.316 23.8475H104.653C104.716 24.1228 104.832 24.35 105.001 24.5289C105.169 24.7078 105.374 24.8406 105.615 24.927C105.857 25.0135 106.114 25.0568 106.388 25.0568C106.849 25.0568 107.22 24.9733 107.503 24.8065C107.785 24.6397 107.926 24.3842 107.926 24.04C107.926 23.7918 107.85 23.5938 107.698 23.4459C107.546 23.298 107.305 23.1876 106.976 23.1147L105.539 22.7734C104.94 22.6343 104.461 22.4121 104.102 22.1067C103.743 21.8013 103.561 21.3715 103.557 20.8174C103.555 20.393 103.66 20.0159 103.873 19.686C104.085 19.3561 104.402 19.0963 104.823 18.9066C105.245 18.7169 105.767 18.622 106.39 18.622C107.207 18.622 107.863 18.8039 108.359 19.1676C108.855 19.5313 109.112 20.0582 109.13 20.7483H107.832C107.784 20.4187 107.633 20.1594 107.381 19.9704C107.128 19.7814 106.793 19.6869 106.375 19.6869C105.945 19.6869 105.593 19.7715 105.319 19.9406C105.046 20.1098 104.909 20.3694 104.909 20.7194C104.909 20.9582 105.009 21.1464 105.21 21.2838C105.411 21.4211 105.71 21.5356 106.108 21.6272L107.484 21.9684C107.838 22.0594 108.129 22.1809 108.357 22.3329C108.585 22.4848 108.764 22.6526 108.895 22.8362C109.025 23.0198 109.117 23.2093 109.171 23.4045C109.224 23.5998 109.251 23.7839 109.251 23.9569C109.251 24.4119 109.136 24.8018 108.906 25.1265C108.676 25.4513 108.348 25.7014 107.922 25.8768C107.496 26.0523 106.986 26.14 106.394 26.14Z" fill="#0F172A"/>
</svg>
