<svg width="37" height="34" viewBox="0 0 37 34" fill="none" xmlns="http://www.w3.org/2000/svg">
<rect width="36.0939" height="34" rx="17" fill="#EC5B13" fill-opacity="0.1"/>
<path d="M27.0469 16.05V24C27.0469 24.55 26.8511 25.0208 26.4594 25.4125C26.0678 25.8042 25.5969 26 25.0469 26H11.0469C10.4969 26 10.0261 25.8042 9.63444 25.4125C9.24277 25.0208 9.04694 24.55 9.04694 24V16.05C8.66361 15.7 8.36777 15.25 8.15944 14.7C7.95111 14.15 7.94694 13.55 8.14694 12.9L9.19694 9.5C9.33027 9.06667 9.56777 8.70833 9.90944 8.425C10.2511 8.14167 10.6469 8 11.0969 8H24.9969C25.4469 8 25.8386 8.1375 26.1719 8.4125C26.5053 8.6875 26.7469 9.05 26.8969 9.5L27.9469 12.9C28.1469 13.55 28.1428 14.1417 27.9344 14.675C27.7261 15.2083 27.4303 15.6667 27.0469 16.05ZM20.2469 15C20.6969 15 21.0386 14.8458 21.2719 14.5375C21.5053 14.2292 21.5969 13.8833 21.5469 13.5L20.9969 10H19.0469V13.7C19.0469 14.05 19.1636 14.3542 19.3969 14.6125C19.6303 14.8708 19.9136 15 20.2469 15ZM15.7469 15C16.1303 15 16.4428 14.8708 16.6844 14.6125C16.9261 14.3542 17.0469 14.05 17.0469 13.7V10H15.0969L14.5469 13.5C14.4803 13.9 14.5678 14.25 14.8094 14.55C15.0511 14.85 15.3636 15 15.7469 15ZM11.2969 15C11.5969 15 11.8594 14.8917 12.0844 14.675C12.3094 14.4583 12.4469 14.1833 12.4969 13.85L13.0469 10H11.0969L10.0969 13.35C9.99694 13.6833 10.0511 14.0417 10.2594 14.425C10.4678 14.8083 10.8136 15 11.2969 15ZM24.7969 15C25.2803 15 25.6303 14.8083 25.8469 14.425C26.0636 14.0417 26.1136 13.6833 25.9969 13.35L24.9469 10H23.0469L23.5969 13.85C23.6469 14.1833 23.7844 14.4583 24.0094 14.675C24.2344 14.8917 24.4969 15 24.7969 15ZM11.0469 24H25.0469V16.95C24.9636 16.9833 24.9094 17 24.8844 17C24.8594 17 24.8303 17 24.7969 17C24.3469 17 23.9511 16.925 23.6094 16.775C23.2678 16.625 22.9303 16.3833 22.5969 16.05C22.2969 16.35 21.9553 16.5833 21.5719 16.75C21.1886 16.9167 20.7803 17 20.3469 17C19.8969 17 19.4761 16.9167 19.0844 16.75C18.6928 16.5833 18.3469 16.35 18.0469 16.05C17.7636 16.35 17.4344 16.5833 17.0594 16.75C16.6844 16.9167 16.2803 17 15.8469 17C15.3636 17 14.9261 16.9167 14.5344 16.75C14.1428 16.5833 13.7969 16.35 13.4969 16.05C13.1469 16.4 12.8011 16.6458 12.4594 16.7875C12.1178 16.9292 11.7303 17 11.2969 17C11.2636 17 11.2261 17 11.1844 17C11.1428 17 11.0969 16.9833 11.0469 16.95V24ZM25.0469 24H11.0469C11.0969 24 11.1428 24 11.1844 24C11.2261 24 11.2636 24 11.2969 24C11.7303 24 12.1178 24 12.4594 24C12.8011 24 13.1469 24 13.4969 24C13.6469 24 13.8094 24 13.9844 24C14.1594 24 14.3469 24 14.5469 24C14.7469 24 14.9553 24 15.1719 24C15.3886 24 15.6136 24 15.8469 24C16.0636 24 16.2719 24 16.4719 24C16.6719 24 16.8678 24 17.0594 24C17.2511 24 17.4303 24 17.5969 24C17.7636 24 17.9136 24 18.0469 24C18.3469 24 18.6928 24 19.0844 24C19.4761 24 19.8969 24 20.3469 24C20.5636 24 20.7719 24 20.9719 24C21.1719 24 21.3678 24 21.5594 24C21.7511 24 21.9344 24 22.1094 24C22.2844 24 22.4469 24 22.5969 24C22.9303 24 23.2678 24 23.6094 24C23.9511 24 24.3469 24 24.7969 24C24.8303 24 24.8594 24 24.8844 24C24.9094 24 24.9636 24 25.0469 24Z" fill="#A65329"/>
</svg>
