<svg width="64" height="64" viewBox="0 0 64 64" fill="none" xmlns="http://www.w3.org/2000/svg">
<rect width="64" height="64" rx="16" fill="#EC5B13" fill-opacity="0.1"/>
<path d="M37.175 45.5L30.8 39.125L32.9 37.025L37.175 41.3L45.65 32.825L47.75 34.925L37.175 45.5ZM31.25 29L43.25 21.5H19.25L31.25 29ZM31.25 32L19.25 24.5V39.5H26.975L29.975 42.5H19.25C18.425 42.5 17.7188 42.2062 17.1313 41.6187C16.5438 41.0312 16.25 40.325 16.25 39.5V21.5C16.25 20.675 16.5438 19.9688 17.1313 19.3813C17.7188 18.7938 18.425 18.5 19.25 18.5H43.25C44.075 18.5 44.7812 18.7938 45.3687 19.3813C45.9562 19.9688 46.25 20.675 46.25 21.5V28.025L43.25 31.025V24.5L31.25 32Z" fill="#A65329"/>
</svg>
